<svg preserveAspectRatio="none" width="100%" height="100%" overflow="visible" style="display: block;" viewBox="0 0 45 26" fill="none" xmlns="http://www.w3.org/2000/svg">
<g id="&#228;&#184;&#139;&#232;&#189;&#189; 1" clip-path="url(#clip0_0_4)">
<path id="Vector" fill-rule="evenodd" clip-rule="evenodd" d="M28.9403 0.220808C26.8994 0.412252 22.6958 1.43141 20.1893 2.34077C19.004 2.76589 17.2057 3.60487 16.3095 4.14542C14.2396 5.39543 11.3197 7.97147 9.29016 10.3307C7.22598 12.735 5.22539 15.6743 3.39538 18.9767L2.75069 20.1394L2.78538 19.6946C2.80562 19.4497 2.86343 18.7374 2.91259 18.1152L3.00511 16.9806L2.77382 16.6315C2.33728 15.9699 1.16064 15.0183 0.940919 15.1478C0.848408 15.2013 0.729875 15.6461 0.724094 15.9671C0.724094 16.1163 0.669164 16.4119 0.596889 16.6174C0.504376 16.8849 0.484139 17.0425 0.533286 17.158C0.567979 17.2593 0.567977 17.8336 0.51883 18.6276C0.385843 20.9165 0.307788 21.7583 0.154564 22.5634L0.00712402 23.3432L0.209494 23.7261C0.596891 24.444 2.22454 25.8461 2.67841 25.8461C2.90391 25.8461 3.45033 25.328 5.49137 23.1801C6.40493 22.2227 8.05858 20.5476 9.1832 19.4694L11.2127 17.5014L11.045 17.1805C10.7212 16.5724 9.3104 15.3224 8.94614 15.3224C8.87674 15.3224 7.11324 16.5808 6.51769 17.0594L6.17364 17.341L6.37024 17.0003C6.73451 16.3781 8.41996 13.9372 9.00974 13.1743C10.4003 11.3781 12.2592 9.41574 13.7741 8.13759C16.0204 6.24567 18.4836 4.80139 20.834 4.00183C23.6122 3.05306 26.3848 2.39709 29.1515 2.01982C30.4292 1.84809 34.2395 1.84809 35.4336 2.01982C37.4892 2.32106 40.4928 3.14033 42.6612 3.99619C43.2712 4.24114 43.4331 4.33685 43.9042 4.77604C44.4795 5.30816 44.8873 5.50805 44.9278 5.26874C44.9971 4.89992 43.9158 3.66962 42.9906 3.07558C42.2622 2.59697 41.4903 2.2704 39.8454 1.72984C37.7116 1.026 35.8587 0.595253 33.8522 0.327792C32.8837 0.198287 29.8943 0.13635 28.9403 0.232072V0.220808Z" fill="var(--fill-0, white)"/>
</g>
<defs>
<clipPath id="clip0_0_4">
<rect width="45" height="26" fill="white"/>
</clipPath>
</defs>
</svg>
