<svg width="16" height="16" viewBox="0 0 16 16" fill="none" xmlns="http://www.w3.org/2000/svg">
  <path d="M7.65572 1.88664C7.75377 1.53922 8.24623 1.53922 8.34428 1.88664L9.07011 4.45867C9.40803 5.65612 10.3439 6.59197 11.5413 6.92989L14.1134 7.65572C14.4608 7.75377 14.4608 8.24623 14.1134 8.34428L11.5413 9.07011C10.3439 9.40803 9.40803 10.3439 9.07011 11.5413L8.34428 14.1134C8.24623 14.4608 7.75377 14.4608 7.65572 14.1134L6.92989 11.5413C6.59197 10.3439 5.65612 9.40803 4.45867 9.07011L1.88664 8.34428C1.53922 8.24623 1.53922 7.75377 1.88664 7.65572L4.45867 6.92989C5.65612 6.59197 6.59197 5.65612 6.92989 4.45867L7.65572 1.88664Z" fill="currentColor"/>
  <path d="M2.53725 0.52202C2.57072 0.38702 2.76261 0.387021 2.79608 0.52202L3.00307 1.35694C3.12201 1.83672 3.49662 2.21132 3.97639 2.33026L4.81131 2.53725C4.94631 2.57072 4.94631 2.76261 4.81131 2.79608L3.97639 3.00307C3.49662 3.12201 3.12201 3.49662 3.00307 3.97639L2.79608 4.81131C2.76261 4.94631 2.57072 4.94631 2.53725 4.81131L2.33026 3.97639C2.21132 3.49662 1.83672 3.12201 1.35694 3.00307L0.52202 2.79608C0.38702 2.76261 0.387021 2.57072 0.52202 2.53725L1.35694 2.33026C1.83672 2.21132 2.21132 1.83672 2.33026 1.35694L2.53725 0.52202Z" fill="currentColor"/>
</svg>
