<svg width="16" height="16" viewBox="0 0 16 16" fill="none" xmlns="http://www.w3.org/2000/svg">
  <path d="M9 5.33333H7M10 1.33333L9.33333 2.66667H11.3333C11.687 2.66667 12.0261 2.80714 12.2761 3.05719C12.5262 3.30724 12.6667 3.64638 12.6667 4V13.3333C12.6667 13.687 12.5262 14.0261 12.2761 14.2761C12.0261 14.5262 11.687 14.6667 11.3333 14.6667H4.66667C4.31304 14.6667 3.97391 14.5262 3.72386 14.2761C3.47381 14.0261 3.33333 13.687 3.33333 13.3333V4C3.33333 3.64638 3.47381 3.30724 3.72386 3.05719C3.97391 2.80714 4.31304 2.66667 4.66667 2.66667H6.66667M11.2661 14.6667C11.1127 13.9136 10.7038 13.2365 10.1086 12.7503C9.51335 12.264 8.76835 11.9984 7.99973 11.9984C7.23112 11.9984 6.48611 12.264 5.89087 12.7503C5.29563 13.2365 4.88673 13.9136 4.7334 14.6667M6 1.33333L8 5.33333M10 10C10 11.1046 9.10457 12 8 12C6.89543 12 6 11.1046 6 10C6 8.89543 6.89543 8 8 8C9.10457 8 10 8.89543 10 10Z" stroke="currentColor" stroke-width="1.33333" stroke-linecap="round" stroke-linejoin="round"/>
</svg>
