<svg preserveAspectRatio="xMidYMid meet" width="40" height="40" viewBox="0 0 40 40" fill="none" xmlns="http://www.w3.org/2000/svg">
  <g clip-path="url(#clip0)">
    <path d="M27.7864 10.8481C26.3597 8.29333 22.381 3.94442 16.9895 5.61762C11.7057 7.25743 10.355 11.314 10.3157 13.3852C10.313 13.5301 10.1909 13.6449 10.0462 13.6381C7.80444 13.5327 3.71594 14.7325 3.34994 20.4477C2.97904 26.2435 7.57914 28.5619 10.1136 29.0483C10.231 29.0708 10.3152 29.1729 10.3196 29.2924C10.374 30.7751 11.4156 33.5958 15.3216 34.5043C19.2162 35.4101 21.6982 33.6618 22.5823 32.5317C22.6571 32.4361 22.7874 32.403 22.8968 32.4555C24.4847 33.2174 28.1393 34.143 31.5228 32.3598C34.957 30.5494 34.601 26.1808 33.9564 24.0659C33.9267 23.9677 33.96 23.8627 34.0413 23.8002C36.0891 22.2344 39.1297 18.6769 36.7044 14.0756C34.4496 9.79821 30.0372 10.2449 28.0901 10.9594C27.9748 11.0015 27.8463 10.9553 27.7864 10.8481ZM24.8548 15.8461C26.039 15.8461 26.9993 16.8065 26.9993 17.9907V22.0405C26.9993 23.2246 26.0389 24.185 24.8548 24.185C23.6708 24.1848 22.7113 23.2245 22.7112 22.0405V17.9907C22.7112 16.8066 23.6708 15.8464 24.8548 15.8461ZM18.5413 15.8461C19.7255 15.8461 20.6858 16.8065 20.6858 17.9907V22.0405C20.6858 23.2246 19.7255 24.185 18.5413 24.185C17.3573 24.1848 16.3978 23.2245 16.3977 22.0405V17.9907C16.3977 16.8066 17.3573 15.8464 18.5413 15.8461Z" fill="url(#paint0)"/>
  </g>
  <defs>
    <radialGradient id="paint0" cx="0" cy="0" r="1" gradientUnits="userSpaceOnUse" gradientTransform="translate(20.465 20.0001) rotate(88.6955) scale(23.506 65.9913)">
      <stop stop-color="#9BDFF8"/>
      <stop offset="1" stop-color="#2693EF"/>
    </radialGradient>
    <clipPath id="clip0"><rect width="40" height="40" fill="white"/></clipPath>
  </defs>
</svg>
