<svg width="40" height="40" viewBox="0 0 40 40" fill="none" xmlns="http://www.w3.org/2000/svg">
<path d="M27.7868 10.8482C26.3601 8.29345 22.3814 3.94454 16.9899 5.61774C11.7061 7.25755 10.3554 11.3141 10.3161 13.3853C10.3134 13.5302 10.1913 13.645 10.0466 13.6382C7.80476 13.5328 3.71627 14.7326 3.35027 20.4478C2.97937 26.2436 7.57946 28.562 10.114 29.0484C10.2314 29.0709 10.3156 29.173 10.32 29.2925C10.3744 30.7752 11.416 33.5959 15.322 34.5044C19.2166 35.4102 21.6986 33.6619 22.5827 32.5318C22.6575 32.4362 22.7878 32.4031 22.8972 32.4556C24.4851 33.2175 28.1397 34.1431 31.5231 32.3599C34.9573 30.5495 34.6014 26.1809 33.9567 24.066C33.927 23.9678 33.9603 23.8628 34.0417 23.8003C36.0894 22.2345 39.13 18.677 36.7048 14.0757C34.4499 9.79833 30.0376 10.245 28.0905 10.9595C27.9752 11.0016 27.8467 10.9554 27.7868 10.8482ZM24.8552 15.8462C26.0394 15.8462 26.9997 16.8066 26.9997 17.9908V22.0406C26.9997 23.2247 26.0393 24.1851 24.8552 24.1851C23.6712 24.1849 22.7117 23.2246 22.7116 22.0406V17.9908C22.7116 16.8067 23.6712 15.8465 24.8552 15.8462ZM18.5417 15.8462C19.7259 15.8462 20.6862 16.8066 20.6862 17.9908V22.0406C20.6862 23.2247 19.7259 24.1851 18.5417 24.1851C17.3577 24.1849 16.3982 23.2246 16.3981 22.0406V17.9908C16.3981 16.8067 17.3577 15.8465 18.5417 15.8462Z" fill="black"/>
</svg>
