<svg width="20" height="20" viewBox="0 0 20 20" fill="none" xmlns="http://www.w3.org/2000/svg">
  <path d="M15.8441 14.7834L6.56592 5.50516L5.5911 4.53034C5.29821 4.23745 4.82333 4.23745 4.53044 4.53034C4.23755 4.82323 4.23755 5.29811 4.53044 5.591L5.50526 6.56582L14.7835 15.844C15.0764 16.1369 15.5513 16.1369 15.8441 15.844C16.137 15.5512 16.137 15.0763 15.8441 14.7834Z" fill="currentColor"/>
  <path d="M5.59099 15.844L14.8692 6.56581L15.844 5.59099C16.1369 5.2981 16.1369 4.82322 15.844 4.53033C15.5511 4.23744 15.0763 4.23744 14.7834 4.53033L13.8086 5.50515L4.53033 14.7834C4.23744 15.0763 4.23744 15.5511 4.53033 15.844C4.82322 16.1369 5.2981 16.1369 5.59099 15.844Z" fill="currentColor"/>
</svg>
