<svg width="16" height="16" viewBox="0 0 16 16" fill="none" xmlns="http://www.w3.org/2000/svg">
  <path d="M5.80933 9.33333H3.336C3.19622 9.33339 3.05999 9.37739 2.94658 9.4591C2.83317 9.5408 2.74831 9.65609 2.704 9.78867L1.368 13.7887C1.33451 13.8889 1.32531 13.9956 1.34117 14.1001C1.35703 14.2045 1.39749 14.3037 1.45922 14.3895C1.52094 14.4752 1.60216 14.5451 1.69619 14.5933C1.79021 14.6415 1.89434 14.6666 2 14.6667H14C14.1056 14.6666 14.2096 14.6414 14.3036 14.5933C14.3975 14.5451 14.4787 14.4753 14.5404 14.3897C14.6021 14.304 14.6426 14.2049 14.6585 14.1005C14.6745 13.9962 14.6654 13.8895 14.632 13.7893L13.2987 9.78933C13.2544 9.65653 13.1695 9.54102 13.056 9.45917C12.9424 9.37733 12.806 9.3333 12.666 9.33333H10.1913M12 5.33333C12 7.742 9.42067 10.286 8.40467 11.1967C8.28844 11.2854 8.14625 11.3335 8 11.3335C7.85375 11.3335 7.71156 11.2854 7.59533 11.1967C6.58 10.286 4 7.742 4 5.33333C4 4.27247 4.42143 3.25505 5.17157 2.50491C5.92172 1.75476 6.93913 1.33333 8 1.33333C9.06087 1.33333 10.0783 1.75476 10.8284 2.50491C11.5786 3.25505 12 4.27247 12 5.33333ZM9.33333 5.33333C9.33333 6.06971 8.73638 6.66667 8 6.66667C7.26362 6.66667 6.66667 6.06971 6.66667 5.33333C6.66667 4.59695 7.26362 4 8 4C8.73638 4 9.33333 4.59695 9.33333 5.33333Z" stroke="currentColor" stroke-width="1.33333" stroke-linecap="round" stroke-linejoin="round"/>
</svg>
