<svg width="16" height="16" viewBox="0 0 16 16" fill="none" xmlns="http://www.w3.org/2000/svg">
  <path d="M8.6667 4.66653L5.80003 1.79987C5.49895 1.50024 5.09147 1.33203 4.6667 1.33203C4.24193 1.33203 3.83445 1.50024 3.53336 1.79987L1.80003 3.5332C1.5004 3.83428 1.33219 4.24177 1.33219 4.66653C1.33219 5.0913 1.5004 5.49879 1.80003 5.79987L4.6667 8.66653M5.33333 4L6.66667 2.66667M12 10.6667L13.3333 9.33333M11.3333 7.33333L14.2 10.2C14.8267 10.8267 14.8267 11.84 14.2 12.4667L12.4667 14.2C11.84 14.8267 10.8267 14.8267 10.2 14.2L7.33333 11.3333M10 3.33333L12.6667 6M14.116 4.54126C14.4685 4.18888 14.6666 3.71091 14.6666 3.2125C14.6667 2.71409 14.4688 2.23607 14.1164 1.8836C13.764 1.53112 13.286 1.33307 12.7876 1.33301C12.2892 1.33295 11.8112 1.53088 11.4587 1.88326L2.56137 10.7826C2.40658 10.9369 2.29211 11.1269 2.22804 11.3359L1.34737 14.2373C1.33014 14.2949 1.32884 14.3562 1.34361 14.4145C1.35837 14.4728 1.38865 14.5261 1.43124 14.5686C1.47382 14.6111 1.52712 14.6413 1.58548 14.656C1.64384 14.6706 1.70508 14.6693 1.7627 14.6519L4.6647 13.7719C4.87348 13.7084 5.06349 13.5947 5.21804 13.4406L14.116 4.54126Z" stroke="currentColor" stroke-width="1.33333" stroke-linecap="round" stroke-linejoin="round"/>
</svg>
