<svg preserveAspectRatio="none" width="100%" height="100%" overflow="visible" style="display: block;" viewBox="0 0 14 14" fill="none" xmlns="http://www.w3.org/2000/svg">
<g id="Icon/Arrow_Up" clip-path="url(#clip0_0_25)">
<path id="Union" d="M12.2986 6.87092C12.4373 7.04227 12.4274 7.29408 12.2689 7.45397L8.07537 11.6831C7.90526 11.8546 7.62827 11.8557 7.45672 11.6857C7.28515 11.5156 7.28403 11.2383 7.45416 11.0668L10.9083 7.58328L2.04152 7.58328C1.79989 7.58328 1.60402 7.38741 1.60402 7.14578C1.60404 6.90418 1.79991 6.70828 2.04152 6.70828L10.9083 6.70828L7.45416 3.2248C7.28404 3.05322 7.28515 2.77599 7.45672 2.60587C7.62827 2.43586 7.90527 2.43697 8.07537 2.60843L12.2689 6.8376L12.2986 6.87092Z" fill="var(--fill-0, white)"/>
</g>
<defs>
<clipPath id="clip0_0_25">
<rect width="14" height="14" fill="white"/>
</clipPath>
</defs>
</svg>
