<svg preserveAspectRatio="none" width="100%" height="100%" overflow="visible" style="display: block;" viewBox="0 0 32 25.2863" fill="none" xmlns="http://www.w3.org/2000/svg">
<g id="Logo Container">
<path id="Vector" d="M16.0148 20.1296C16.2458 20.1296 17.3128 19.7484 17.73 19.5279C19.9631 18.35 21.9145 16.7514 23.1857 14.543C24.2061 12.7673 24.27 10.5784 24.4374 8.58792C24.6524 6.01638 24.6333 3.44124 24.5921 0.860182C24.5896 0.674239 20.8977 0.268099 20.5181 0.233073C19.0221 0.0932293 17.0169 0 16.0148 0C15.0137 0 13.009 0.0932293 11.5117 0.232816C11.1318 0.268099 7.44103 0.674239 7.43794 0.860182C7.39751 3.44124 7.37716 6.01638 7.59246 8.58792C7.76089 10.5784 7.82373 12.7673 8.84436 14.543C10.1158 16.7514 12.0672 18.35 14.3003 19.5279C14.7173 19.7481 15.7848 20.1296 16.0148 20.1296Z" fill="var(--fill-0, #E6AF07)"/>
<path id="Vector_2" d="M21.0583 10.6571C21.0668 10.6586 21.075 10.6599 21.0833 10.6609C21.0745 10.6599 21.0681 10.6571 21.0583 10.656V10.6571ZM20.5739 10.9677C20.5903 10.9731 20.6045 10.9803 20.6182 10.9862C20.6045 10.9793 20.5911 10.9715 20.5746 10.9653L20.5739 10.9677ZM23.4596 6.25984C23.4596 6.25984 23.4681 6.13107 23.4735 6.12412C23.5688 6.09295 23.986 5.92555 24.0646 5.39708C24.0761 5.31467 24.0782 5.22505 24.0718 5.12461L24.0488 5.14598C23.9657 5.22427 23.7138 5.46173 23.576 5.43082C23.5402 5.42361 23.5144 5.39863 23.498 5.35665C23.4985 4.82947 23.4565 4.40968 23.4027 3.86678C23.552 3.78437 23.8675 3.55027 23.8665 3.05167C23.866 2.98471 23.858 2.91414 23.8456 2.83843L23.8196 2.86753C23.738 2.9623 23.5204 3.21212 23.3916 3.19666C23.3607 3.1928 23.337 3.17477 23.321 3.13975L23.313 3.06918C23.2098 1.9494 22.9782 1.3962 22.5203 1.1603C22.5203 1.1603 22.4915 1.14974 22.4915 1.14665C22.4915 1.15489 22.5157 1.18991 22.5376 1.22365C22.6056 1.32332 22.7171 1.48892 22.7593 1.68439C22.833 2.01791 22.8606 2.286 22.8606 2.50594C22.8606 2.75988 22.825 2.94891 22.7861 3.10034C22.7253 3.21134 22.6391 3.28036 22.5294 3.30638C22.277 3.3669 21.988 3.08669 21.8932 2.85929C21.8896 2.85233 21.8847 2.84461 21.8783 2.84461C21.858 2.84461 21.824 2.90539 21.8046 2.94737C21.7235 3.24714 21.8237 3.62263 22.0269 3.76763C22.1011 3.8212 22.2208 3.86446 22.3638 3.7666C22.439 3.71741 22.493 3.69887 22.5322 3.7102C22.553 3.71612 22.567 3.73029 22.577 3.75836C22.4798 4.03036 22.371 4.2981 22.251 4.56085C22.1825 4.62215 22.1052 4.65537 22.0215 4.66026C21.7372 4.67752 21.4982 4.32752 21.4431 4.07899C21.4407 4.06792 21.4376 4.06174 21.4312 4.06122C21.4111 4.05659 21.3619 4.11454 21.3341 4.15574C21.1909 4.45165 21.2236 4.85986 21.4047 5.04786C21.4727 5.11791 21.5891 5.18538 21.7593 5.11018C21.8474 5.07078 21.9069 5.06074 21.9409 5.07979C21.9574 5.08804 21.9679 5.10323 21.9708 5.12924C21.8294 5.39466 21.6762 5.65358 21.5116 5.90521C21.4487 5.94538 21.381 5.96496 21.3032 5.96496C21.0014 5.96315 20.8026 5.61573 20.7799 5.37545C20.7791 5.36644 20.7763 5.36025 20.7711 5.35974C20.7508 5.35227 20.6903 5.4079 20.6542 5.44859C20.4678 5.72957 20.4389 6.11768 20.5942 6.3147C20.68 6.42441 20.8134 6.45454 20.9666 6.3984C21.0609 6.36363 21.1206 6.35616 21.1456 6.37445C21.1572 6.38037 21.1626 6.39196 21.1605 6.41127C20.9991 6.62992 20.8268 6.846 20.6455 7.05461C20.526 7.13419 20.4057 7.1638 20.2805 7.14372C19.9604 7.09453 19.7623 6.63765 19.7623 6.33195C19.7623 6.31753 19.7587 6.30903 19.7539 6.3062C19.7276 6.29538 19.656 6.35255 19.6163 6.39041C19.3753 6.69508 19.3091 7.17385 19.4708 7.43731C19.5316 7.53492 19.649 7.64334 19.8654 7.59853C19.9792 7.57484 20.0456 7.57819 20.067 7.60806C20.0789 7.62583 20.0753 7.65133 20.0559 7.6861C20.0559 7.6861 19.5329 8.16975 19.5316 8.17104C19.401 8.2532 19.2025 8.33613 18.9923 8.25912C18.6418 8.13421 18.5159 7.57149 18.582 7.22407C18.5846 7.20733 18.5826 7.19703 18.5751 7.19136C18.5478 7.17359 18.4517 7.22355 18.3994 7.25832C18.06 7.55243 17.8815 8.08502 18.0098 8.41905C18.0577 8.5437 18.1677 8.69308 18.4242 8.68947C18.565 8.68793 18.6415 8.7075 18.6565 8.75025C18.6694 8.78631 18.6379 8.83343 18.5599 8.89627C18.4896 8.93619 18.4069 8.9895 18.3415 9.07063C18.1862 9.25992 18.1151 9.41367 18.0979 9.60168L18.0824 9.79354C18.0721 9.94343 18.0618 10.0977 18.0296 10.2458C18.0021 10.3869 17.957 10.5126 17.8988 10.619C17.5722 11.2131 16.8099 11.5234 16.0095 11.6391V10.5242C16.9832 10.4953 17.4035 10.0707 17.4035 9.11853C17.4035 8.30754 17.1112 7.95497 16.4249 7.94003C16.2881 7.93771 16.1447 7.96037 16.0095 8.00647V7.38658C16.4973 7.16535 17.0505 6.91502 17.6263 6.76797C18.9508 6.43136 20.0163 5.69943 20.3884 4.9178C20.4399 4.80526 20.4778 4.69065 20.4997 4.57373C20.4289 4.61983 19.5432 5.18023 18.8831 5.3224L18.7919 5.33682C18.7033 5.35407 18.6096 5.37236 18.563 5.33218C18.5403 5.31338 18.5292 5.28505 18.5292 5.2441C18.5292 4.88715 18.7258 4.60695 19.0845 4.455L19.1203 4.44007C19.9225 4.09934 20.5463 3.83356 20.8489 3.41763C20.9269 3.30689 20.9839 3.1861 21.0135 3.05115C20.946 3.08721 20.0165 3.57808 19.4175 3.66178L19.3858 3.66719C19.3135 3.67955 19.1927 3.70041 19.1363 3.63937C19.1028 3.60383 19.0966 3.54537 19.1159 3.46476C19.1849 3.19306 19.3006 3.03132 19.5159 2.90796C19.7508 2.77327 20.0037 2.66072 20.2488 2.55204C20.663 2.36739 21.0331 2.20179 21.2187 1.98211C21.228 1.96949 21.2396 1.9579 21.2476 1.94476C21.2503 1.94186 21.2526 1.93856 21.2543 1.93498C21.288 1.88476 21.312 1.83042 21.3254 1.77324L20.4541 2.04752L20.2826 2.10032C20.0338 2.17912 19.7747 2.26051 19.692 2.17861C19.6619 2.14822 19.657 2.09851 19.6794 2.02924C19.7224 1.87883 19.7608 1.79385 19.8316 1.69418C20.1577 1.23009 20.8201 0.73716 21.6125 0.877262C21.7446 0.901986 21.8113 0.892457 21.8155 0.877262C21.8185 0.869278 21.7954 0.843009 21.6918 0.805408C21.0936 0.587787 20.5357 0.60839 20.0338 0.8649C19.1157 1.33465 18.3595 2.60046 17.786 4.62833C17.4579 5.78751 16.744 6.20498 16.0092 6.53541V3.94971C16.2766 3.84257 16.5081 3.6932 16.7069 3.49464C17.2652 2.93629 17.4638 2.23913 17.2369 1.62979C17.053 1.13738 16.617 0.796137 16.1272 0.761111C16.0855 0.758536 16.0471 0.756733 16.0092 0.755961V0.383301C15.0906 0.383301 13.1874 0.468546 11.7042 0.606845C11.1719 0.657323 7.81251 1.04183 7.80942 1.20305C7.79474 2.07997 7.78418 2.94891 7.78418 3.81502C7.78418 5.42876 7.82436 7.02963 7.9575 8.63384L8.00721 9.26044C8.14319 11.0176 8.28458 12.8356 9.15687 14.3559C10.2599 16.2843 12.0174 17.896 14.379 19.1489C14.5255 19.2262 15.2039 19.5749 15.7687 19.6962C15.7705 19.6962 15.7738 19.6972 15.7772 19.6972C15.8019 19.7037 15.8266 19.7078 15.8514 19.7119C15.9049 19.7202 15.959 19.7286 16.0095 19.7323V16.9622C16.7963 16.9743 18.0178 16.9838 18.343 16.8705C18.6562 16.7615 18.8581 16.5223 18.9104 16.1952C18.9707 15.8158 18.8174 15.3927 18.547 15.1869C18.5089 15.1584 18.4564 15.1537 18.4427 15.1733C18.4314 15.1854 18.4386 15.199 18.4566 15.2325C18.486 15.2845 18.5347 15.3726 18.5347 15.5506C18.5347 15.7149 18.4772 15.8519 18.3647 15.9562C18.06 16.2413 17.4378 16.2029 17.4321 16.2029L16.7133 16.1949H16.0162C16.0252 16.1924 16.0327 16.1895 16.0412 16.1885H16.0151C16.42 16.094 16.7054 15.8017 16.8279 15.5774C17.137 15.0154 16.8774 14.643 16.796 14.5348C16.7806 14.5204 16.771 14.5104 16.771 14.5104H16.7762C16.7733 14.5057 16.771 14.5045 16.771 14.5045C16.8192 14.5034 16.8663 14.5019 16.9122 14.499C16.8676 14.5011 16.8233 14.5055 16.7769 14.5045C16.7769 14.5045 16.7795 14.5075 16.7826 14.5104C16.9652 14.5094 17.1321 14.4908 17.2835 14.456C17.1712 14.4797 17.0507 14.4918 16.923 14.4988C18.4149 14.4133 18.7299 13.0676 18.9011 12.3331L18.931 12.2129C18.9838 11.9945 19.1216 11.6115 19.451 11.509C19.6604 11.4431 19.7981 11.364 19.8991 11.305L20.0199 11.2409C20.0199 11.2409 20.0611 11.2244 20.0647 11.2234C20.2522 11.2298 20.2481 11.3882 20.245 11.4928C20.2439 11.5371 20.2421 11.5773 20.2576 11.5858C20.2648 11.5907 20.2795 11.5858 20.3009 11.5729C20.4618 11.4735 20.5422 11.1742 20.5643 11.0014C20.5648 10.989 20.5659 10.9749 20.5659 10.9648L20.5669 10.9653L20.5687 10.9571C20.7732 11.0302 20.7917 11.1503 20.802 11.2146C20.8051 11.2327 20.8074 11.2476 20.8126 11.2499C20.8183 11.2528 20.8363 11.2427 20.8649 11.2198C21.014 11.1 21.047 10.8242 21.0513 10.663V10.656C21.0519 10.6542 21.0519 10.6514 21.0519 10.6514C21.3027 10.6669 21.3279 10.809 21.339 10.8773C21.3413 10.8917 21.3449 10.9105 21.3496 10.9123C21.3496 10.9123 21.3591 10.9118 21.39 10.8796C21.5206 10.7418 21.5206 10.449 21.5157 10.322C21.5152 10.3162 21.5144 10.3105 21.5134 10.3048H21.5144V10.2996C21.6772 10.3115 21.7135 10.434 21.7359 10.5069C21.7426 10.5317 21.7511 10.5574 21.7601 10.5584C21.7634 10.559 21.7742 10.5561 21.7977 10.5257C21.9465 10.3359 21.938 10.0503 21.9149 9.9424C21.9125 9.9339 21.9095 9.92386 21.9069 9.91871L21.9084 9.91922C21.9084 9.9169 21.9079 9.91304 21.9079 9.91304C22.0743 9.92103 22.1119 10.0289 22.1333 10.0918C22.1402 10.1142 22.1474 10.134 22.1549 10.135C22.1603 10.1356 22.1721 10.1304 22.1982 10.0962C22.3166 9.94472 22.3071 9.65293 22.2752 9.49737C22.4946 9.2388 22.6311 9.01783 22.6697 8.85687C22.6998 8.73608 22.7181 8.71986 22.7326 8.72115C22.7573 8.72347 22.7645 8.79197 22.7671 8.83318C22.7326 9.22593 22.6504 9.7289 22.5327 10.2468C22.5316 10.2497 22.5307 10.2527 22.5301 10.2558C22.5296 10.2592 22.5283 10.2638 22.5273 10.2677C22.5116 10.3398 22.4961 10.4124 22.4784 10.4861C22.4784 10.4861 22.4763 10.4845 22.4758 10.4835C22.4745 10.4863 22.4738 10.4892 22.4735 10.4922C22.4001 10.423 22.2121 10.4003 22.1711 10.4428C22.1513 10.4624 22.1737 10.4943 22.1948 10.517C22.2752 10.6004 22.3187 10.7583 22.3246 10.901C22.3272 10.9223 22.329 10.9435 22.33 10.9623L22.3249 10.9607C22.3244 10.9638 22.3249 10.9661 22.3249 10.9661C22.2358 10.9213 22.089 10.9115 22.0593 10.9514C22.0442 10.9705 22.065 11.0014 22.0861 11.0223C22.1819 11.1204 22.2126 11.3254 22.1974 11.4776C22.1953 11.5039 22.1935 11.5281 22.1886 11.5497C22.1881 11.5487 22.1871 11.5466 22.1853 11.5464C22.1845 11.5492 22.1845 11.5518 22.184 11.5554C22.1127 11.4856 21.9234 11.4614 21.8814 11.5049C21.8605 11.525 21.8832 11.5572 21.9056 11.5801C21.988 11.6659 22.0081 11.8974 21.9919 12.0509C21.9903 12.0782 21.9878 12.1024 21.9857 12.1235C21.9839 12.1225 21.9826 12.122 21.9811 12.1202C21.9803 12.1235 21.9803 12.1271 21.9798 12.1294C21.8958 12.0537 21.7518 12.0112 21.7186 12.0395C21.705 12.0522 21.7127 12.0813 21.7395 12.1196C21.8456 12.2755 21.8113 12.5652 21.7794 12.6744C21.3004 13.738 20.767 14.2827 20.1945 14.2938C19.7276 14.3043 19.4788 13.8871 19.4487 13.5879C19.4075 13.1549 19.8198 12.8678 20.0701 12.7658C20.2509 12.6906 20.364 12.7936 20.4039 12.841C20.5504 13.0167 20.5314 13.1369 20.4902 13.2088C20.4353 13.3015 20.3104 13.3484 20.2277 13.3342C20.091 13.3079 19.98 13.361 19.9339 13.4717C19.8896 13.5796 19.9179 13.6996 20.0031 13.7604C20.1414 13.8567 20.3194 13.8627 20.5082 13.779C20.7436 13.6731 20.9452 13.4439 20.9669 13.2538C21.0068 13.0877 20.9432 12.7563 20.8136 12.6198C20.5205 12.2219 20.1523 12.1039 19.828 12.3051C19.2501 12.6638 18.9259 13.0697 18.8914 13.4838C18.8607 13.8609 19.0647 14.2467 19.4997 14.6286C20.0173 15.0826 20.8538 14.8035 21.2272 14.4025C21.2272 14.4025 21.2715 14.37 21.279 14.3695C21.3761 14.4061 21.8345 14.5451 22.245 14.1444C22.2947 14.0934 22.345 14.0355 22.3931 13.9654L22.355 13.9685C22.2332 13.9819 21.9079 14.0151 21.8291 13.9095C21.809 13.8815 21.8062 13.8452 21.8255 13.7985C22.0624 13.4746 22.2795 13.063 22.475 12.5688C22.5755 12.5624 23.0231 12.5049 23.2306 12.0099C23.2621 11.9345 23.2878 11.8482 23.3058 11.7514L23.2706 11.7696C23.1562 11.8356 22.8497 12.0081 22.7526 11.9316C22.7197 11.9072 22.713 11.8575 22.732 11.7843C22.8469 11.3867 22.9515 10.945 23.0473 10.4649C23.1876 10.4431 23.6108 10.3295 23.7421 9.77989C23.7565 9.71319 23.7681 9.64108 23.7733 9.56021L23.7416 9.58185C23.6355 9.6537 23.3535 9.84402 23.2278 9.79123C23.1959 9.77732 23.1763 9.7495 23.1691 9.70572C23.2332 9.28155 23.2881 8.82056 23.3385 8.33149C23.4042 8.31192 23.9572 8.13087 23.9572 7.42263C23.9572 7.39894 23.9551 7.37344 23.9541 7.34795C23.9461 7.35541 23.9363 7.36443 23.9363 7.36443C23.8418 7.45019 23.5927 7.67888 23.4624 7.64566C23.43 7.63794 23.4078 7.61476 23.3931 7.57329L23.4503 6.43729L23.4596 6.25984ZM16.0097 1.1433C16.4478 1.29834 16.6868 1.65761 16.6495 2.1168C16.6142 2.55822 16.327 2.95432 16.0097 3.00274V1.1433ZM16.0097 8.38377C16.061 8.3781 16.1176 8.3745 16.1805 8.37501C16.6126 8.37501 16.804 8.57744 16.804 9.03354C16.804 9.36036 16.7051 9.69387 16.0097 9.72478V8.38377ZM18.0649 11.9185V11.9203C17.7852 12.3862 17.4324 12.6752 16.5395 12.6752C16.5395 12.6752 16.3111 12.6746 16.0097 12.6741V12.1853H16.4859C17.2153 12.1853 17.7139 12.0872 17.9264 11.9012C18.0247 11.816 18.0533 11.8199 18.0662 11.8289C18.093 11.8466 18.0698 11.9077 18.0649 11.9185ZM22.9373 4.81298L22.9216 5.02648C22.7225 8.08966 21.7727 9.19451 20.8682 9.87286L20.835 9.8981C20.5504 10.1108 20.2275 10.3524 19.6354 10.5494L19.6168 10.5556C19.5048 10.5914 19.1654 10.7001 19.075 10.8556C18.9887 11.004 18.9619 11.0166 18.947 11.0071C18.9099 10.9878 18.9807 10.784 19.0065 10.7364C19.0727 10.6112 19.1839 10.5422 19.3982 10.4423C19.8038 10.2525 19.8566 10.0101 19.852 9.88291C19.845 9.70186 19.7209 9.52931 19.5491 9.46492C19.4175 9.41419 19.2893 9.44149 19.2097 9.53472C19.2447 9.54991 19.3377 9.59112 19.3544 9.74203C19.3742 9.97099 19.2537 10.0673 19.1448 10.0804C19.0155 10.0954 18.8661 10.0073 18.8411 9.83269C18.7955 9.50819 18.9663 9.29958 19.075 9.22799C19.2081 9.13939 19.2908 9.11003 19.3889 9.07732C19.3889 9.07732 19.5576 9.01397 19.5592 9.01397C19.8293 8.9671 20.0165 9.11467 20.1172 9.19322C20.1541 9.22283 20.1857 9.24833 20.1994 9.2437L20.2136 9.2285C20.2519 9.14918 20.1973 8.83343 20.1304 8.665L20.1358 8.64878L20.1456 8.64775C20.3925 8.6135 20.5195 8.7809 20.596 8.87979C20.6207 8.91353 20.6455 8.94546 20.6573 8.94083C20.6632 8.93851 20.6673 8.93259 20.6722 8.92126C20.7042 8.82597 20.6176 8.48086 20.5406 8.31707C20.5378 8.31217 20.5352 8.3078 20.5329 8.30368L20.5334 8.30316C20.5329 8.30084 20.5324 8.29801 20.5311 8.29646C20.7822 8.22152 20.9372 8.36214 21.0204 8.43682C21.0521 8.46489 21.0786 8.48859 21.0897 8.48292L21.1016 8.4649C21.1263 8.37295 21.0135 8.04923 20.9184 7.89084C20.9184 7.89084 20.9663 7.83882 20.9679 7.83701C21.2102 7.7425 21.366 7.83882 21.4593 7.89754C21.4948 7.91891 21.5226 7.93565 21.5358 7.9287L21.5479 7.90784C21.5692 7.81667 21.4503 7.52256 21.355 7.38297C21.355 7.38297 21.4011 7.32399 21.4049 7.32142C21.5991 7.25678 21.7482 7.30545 21.8389 7.33352C21.8765 7.34666 21.9061 7.35644 21.9177 7.34949C21.9231 7.34589 21.928 7.33893 21.9295 7.32605C21.9411 7.24029 21.827 6.97683 21.7397 6.87922C21.7397 6.87922 21.7802 6.82153 21.7848 6.81999C21.9643 6.75715 22.1029 6.80196 22.1858 6.83081L22.2569 6.84523C22.2646 6.84059 22.2682 6.829 22.2682 6.81046C22.2695 6.70487 22.158 6.44604 22.0908 6.38217C22.0908 6.38217 22.089 6.38166 22.0877 6.38011H22.0884C22.0884 6.38011 22.0846 6.37599 22.0828 6.37522C22.2569 6.22919 22.422 6.23898 22.5103 6.24336L22.5762 6.23924C22.5806 6.23589 22.5822 6.23022 22.5811 6.22018C22.5775 6.15142 22.4511 5.96522 22.363 5.89491C22.5724 5.50499 22.7202 5.14212 22.8031 4.81195C22.9087 4.39731 22.9257 4.39989 22.9404 4.40246C22.9636 4.40659 22.9607 4.4908 22.9373 4.81298ZM20.5401 8.30239C20.552 8.29904 20.5643 8.29672 20.5757 8.2944C20.5638 8.29595 20.5515 8.29672 20.5393 8.30007L20.5401 8.30239ZM22.0939 6.37702C22.1176 6.35745 22.1415 6.34071 22.1655 6.32706C22.141 6.34045 22.1165 6.35616 22.0915 6.3747L22.0939 6.37702ZM22.1577 11.525C22.1669 11.5316 22.1753 11.5392 22.1827 11.5476V11.5428C22.1752 11.5373 22.1675 11.5312 22.1577 11.525ZM21.0173 3.04034C21.0173 3.04034 20.9926 3.0527 20.954 3.07305C20.9849 3.05914 21.005 3.04935 21.0155 3.04523C21.0161 3.04394 21.0166 3.04188 21.0173 3.04034ZM21.3282 1.76655V1.76423C21.3282 1.76423 21.3194 1.76706 21.3037 1.7717C21.3143 1.76989 21.3228 1.76783 21.3282 1.76655ZM20.5041 4.56291C20.5041 4.56291 20.4783 4.57888 20.4376 4.60386C20.4696 4.58609 20.4912 4.57296 20.502 4.56806C20.5028 4.56703 20.5028 4.56394 20.5041 4.56291ZM16.2397 16.1179C16.1699 16.146 16.0963 16.1723 16.0162 16.1883H16.0432C16.112 16.17 16.1782 16.1452 16.2397 16.1179ZM21.9764 9.93081C21.9574 9.92489 21.9375 9.91845 21.9131 9.9151C21.9138 9.91639 21.9144 9.91871 21.9144 9.91922C21.938 9.92231 21.9579 9.92566 21.9764 9.93081ZM21.9512 12.0965C21.9612 12.1055 21.9692 12.1137 21.9777 12.1217V12.1176C21.9692 12.1104 21.9602 12.1037 21.9512 12.0965ZM22.2935 10.9455C22.3038 10.9512 22.3125 10.9571 22.3207 10.962V10.9581C22.3125 10.9545 22.3038 10.9496 22.2935 10.9455ZM22.4472 10.4634C22.4565 10.4704 22.4645 10.4765 22.4699 10.4845C22.4717 10.4835 22.4717 10.483 22.4724 10.4809C22.4644 10.4746 22.4559 10.4688 22.4472 10.4634ZM21.5211 10.3045V10.3063C21.5316 10.3076 21.5419 10.3097 21.5507 10.3115C21.5412 10.3086 21.5322 10.3058 21.5211 10.3045Z" fill="var(--fill-0, #73146B)"/>
<path id="Vector_3" d="M15.7428 2.93091C15.6622 2.84953 15.6689 2.47944 15.67 2.47481C15.67 1.99965 15.2718 1.83096 14.9321 1.83096C14.5677 1.83096 14.1917 2.02282 14.1917 2.34269L14.1943 3.55364C14.1943 3.61854 14.1726 3.67005 14.1319 3.70507C14.0961 3.73546 14.0462 3.75195 13.9911 3.75195C13.879 3.75195 13.7644 3.68318 13.7644 3.56703V2.91494C13.7644 2.17348 12.9346 2.06274 12.4404 2.06274C11.7327 2.06274 10.9802 2.37926 10.9802 2.96516L10.9809 3.29069L10.9802 5.9588C10.9853 6.11899 10.8823 6.23514 10.7927 6.28562C10.7151 6.32914 10.6353 6.33378 10.5784 6.29824C10.5284 6.2663 10.4738 6.19007 10.4893 6.00593C10.4913 5.98147 10.48 5.96292 10.462 5.9588C10.4365 5.95236 10.3968 5.97219 10.368 6.04534C10.2825 6.26708 10.2881 6.47105 10.3829 6.65261C10.505 6.88569 10.7479 7.01806 10.8802 7.05026L10.8748 7.46464H10.871C10.4007 7.45665 9.83256 7.27457 9.83256 6.41825V2.29298C9.83256 1.6633 9.57064 1.45031 9.35199 1.38232C8.94868 1.25793 8.42124 1.52964 8.19898 1.85285C7.96643 2.19229 8.03493 2.4985 8.17606 2.67337C8.33677 2.87039 8.60409 2.93632 8.84335 2.83665C8.84773 2.83382 8.89022 2.80523 8.8879 2.77664C8.88507 2.75861 8.8673 2.74703 8.83305 2.74187C8.67208 2.71715 8.57525 2.60821 8.57525 2.45085C8.57525 2.2783 8.72591 2.13305 8.90593 2.13305C9.08312 2.13305 9.22785 2.27599 9.22785 2.45085V3.0553L9.23069 6.60291C8.75141 6.5939 8.62058 6.98587 8.62058 7.21637C8.62058 7.57924 8.87477 7.716 8.88507 7.72115C8.89614 7.72836 8.92087 7.72655 8.93709 7.71136C8.94868 7.70054 8.95847 7.67608 8.93709 7.63255C8.87734 7.51228 8.87348 7.40772 8.93014 7.3302C9.00199 7.22873 9.15806 7.19216 9.27318 7.20787C9.34735 7.21869 9.39706 7.24779 9.41174 7.28899C9.58867 7.78836 10.0461 8.04204 10.8122 8.0647C10.8287 8.0647 10.8573 8.08144 10.8854 8.10874L10.8831 8.33538C10.6472 8.43659 10.1251 8.77963 10.148 9.76447C10.1645 10.5175 10.3129 11.5672 10.4553 11.6721C10.4674 11.6816 10.4798 11.6847 10.4929 11.6816C11.13 11.5044 12.0768 11.4928 12.556 11.7777C12.6222 11.8165 12.6585 11.8642 12.6534 11.908C12.6518 11.9332 12.6361 11.953 12.6142 11.9605C12.59 11.9698 12.5648 11.9623 12.5445 11.942C12.3356 11.7328 11.7443 11.7081 11.5686 11.7045C10.9052 11.6934 9.54669 11.8977 9.14518 12.7463C8.91675 13.2328 9.38058 14.2135 9.62987 14.5248C9.64481 14.5452 9.67829 14.5447 9.70276 14.5346C9.72233 14.5264 9.73289 14.5117 9.72903 14.4962C9.63271 14.0095 9.82509 13.5302 10.2719 13.1465C10.8148 12.6798 11.6083 12.4663 12.1169 12.6497C12.1844 12.6757 12.2303 12.7177 12.2364 12.7635C12.2395 12.7854 12.2339 12.805 12.2202 12.8166C12.2071 12.8256 12.1911 12.8266 12.1718 12.8186C11.5097 12.5325 10.8326 12.967 10.8256 12.9711C11.1128 14.6904 13.2058 14.6484 14.7338 14.6168L15.2574 14.6093C15.2584 14.6134 15.8422 15.1898 15.7624 15.6758C15.7302 15.8707 15.596 16.0273 15.3622 16.1393C15.1289 16.2532 14.1966 16.1947 14.1 16.1167C14.048 16.075 14.0271 15.9519 14.0464 15.8048C14.0781 15.5743 14.2167 15.2601 14.5048 15.1342C14.5363 15.1262 14.5512 15.113 14.5489 15.0961C14.5412 15.061 14.4433 15.035 14.3776 15.0415C13.8455 15.1087 13.4616 15.3768 13.3261 15.7796C13.296 15.8694 13.2828 15.9117 13.2813 16.007C13.2666 16.1757 13.2277 16.1793 13.0049 16.2035L12.8854 16.2169C12.4641 16.2686 12.2248 16.4695 12.1733 16.8138C12.1347 17.0855 12.2184 17.3596 12.4049 17.5677C12.5607 17.74 12.76 17.8337 12.9547 17.8262C12.9658 17.8262 12.9851 17.8162 12.9884 17.7976C12.9936 17.7819 12.9879 17.7559 12.939 17.7279C12.7021 17.5914 12.6403 17.3696 12.6846 17.2105C12.7314 17.0353 12.8996 16.9297 13.1213 16.9323C13.1249 16.9323 13.2161 16.9302 13.2192 16.9988L13.22 17.0644L13.2352 17.2578C13.3251 17.777 13.7211 18.2303 14.1981 18.3619C14.2167 18.3665 14.2527 18.3529 14.2617 18.3277C14.2695 18.3063 14.2612 18.2756 14.1809 18.2414C13.9282 18.0539 13.8363 17.683 13.835 17.3979C13.8334 17.2087 13.8726 17.051 13.9313 17.0055C14.0372 16.9241 14.4284 16.8718 14.6223 17.0665C14.8152 17.2584 14.9015 17.4353 14.8662 17.5623C14.8433 17.6454 14.7668 17.7072 14.6439 17.7394C14.6279 17.743 14.6205 17.7693 14.6246 17.7889C14.6261 17.7984 14.6364 17.8311 14.6836 17.8231C15.1945 17.7474 15.3733 17.3469 15.3702 17.0263C15.3689 17.0232 15.3637 17.0057 15.3748 16.9931C15.3846 16.98 15.407 16.9725 15.4389 16.9725L15.8155 16.9771C15.8786 16.9771 15.9489 16.9787 16.0189 16.9802V12.66L14.5839 12.6572C14.2504 12.6572 14.1229 12.8027 14.1149 12.9394C14.1031 13.1174 14.2924 13.3327 14.663 13.379C14.6856 13.3821 14.7446 13.4169 14.7433 13.4385C14.7433 13.4455 14.7353 13.4627 14.6576 13.4653C14.4108 13.4684 13.8986 13.4754 13.7124 13.1735C13.5988 12.9891 13.5906 12.7504 13.6939 12.5673C13.8244 12.3311 14.1232 12.2016 14.5319 12.2016H16.0189V11.6249C15.2736 11.7352 14.4917 11.6749 14.0006 11.515C13.075 11.2124 12.3026 10.3666 12.6184 9.33386C12.6624 9.19041 12.7623 9.04207 12.9243 8.87904C13.1267 8.67842 13.3287 8.67224 13.3961 8.67018C13.4242 8.67482 13.4415 8.66967 13.4497 8.65653C13.4664 8.62357 13.4088 8.5615 13.407 8.55815C13.0853 8.17673 11.7463 8.0629 11.4806 8.17519C11.4736 8.17905 11.4656 8.16669 11.4607 8.15845C11.3523 7.96272 11.3129 6.69846 11.7919 6.36468C11.9907 6.22716 12.2006 6.17565 12.3521 6.22896C12.4747 6.27274 12.5622 6.37962 12.6122 6.54934C12.6694 6.74662 12.6122 6.97814 12.4798 7.06391C12.3837 7.12778 12.2604 7.10614 12.1334 7.00132C12.0984 6.97222 12.0835 6.92973 12.0695 6.89264L12.0528 6.85092C12.0392 6.82285 12.017 6.7922 11.9936 6.79426C11.9869 6.79426 11.9766 6.79812 11.9722 6.81615C11.9534 7.21843 12.1126 7.51099 12.4108 7.6189C12.9241 7.80691 13.485 7.60937 13.8373 7.11773C14.1646 6.65931 14.3014 5.88669 13.9818 5.6155C13.9594 5.59696 13.9419 5.59207 13.9298 5.59953C13.9014 5.6155 13.9138 5.68658 13.9171 5.70101C13.9192 6.13032 13.6408 6.43989 13.3691 6.48959C13.1363 6.53209 12.9405 6.39018 12.8319 6.09813C12.8319 6.09813 12.8396 6.03452 12.9114 6.0407C13.1474 6.06208 13.3171 5.97606 13.4036 5.7932C13.5113 5.56399 13.4216 5.24336 13.1958 5.04892C13.1873 5.04557 13.1401 5.03295 13.1206 5.04892C13.1152 5.05329 13.1108 5.06025 13.1126 5.07184C13.1455 5.35281 13.0716 5.5318 12.9086 5.56399C12.7598 5.59361 12.581 5.48467 12.5403 5.34174C12.4978 5.18747 12.6222 5.04531 12.8826 4.95131C12.8968 4.94616 12.9014 4.9374 12.9032 4.93173C12.9078 4.90984 12.8854 4.88435 12.8826 4.88126C12.5403 4.76691 12.1775 4.88976 12.0502 5.15863C11.9668 5.3371 12.0446 5.65439 12.2393 5.74608C12.2393 5.74608 12.247 5.75766 12.2336 5.77621C12.196 5.83081 12.0155 5.9006 11.8483 5.84832C11.7262 5.80943 11.5815 5.69508 11.5815 5.36698V3.38907C11.5815 3.18639 11.8056 3.07771 12.026 3.06019C12.2439 3.04088 12.4942 3.11041 12.5257 3.30486C12.5674 3.55184 12.5344 3.61648 12.4556 3.65511C12.3031 3.72645 12.171 3.60927 12.171 3.60927C12.1684 3.61081 12.1677 3.61313 12.1672 3.61545L12.1648 3.61416C12.1635 3.61751 12.1635 3.62086 12.1623 3.62318C12.1383 3.67185 12.1417 3.72001 12.1672 3.76714C12.222 3.87144 12.367 3.95669 12.5375 3.98631C12.7052 4.01541 12.8326 3.99584 12.9135 3.92733C12.9763 3.87453 13.0096 3.79135 13.0096 3.68859V3.36641C13.0096 3.21781 13.0915 3.14647 13.1677 3.14261C13.2359 3.139 13.3096 3.18948 13.3212 3.3082L13.3261 3.73418L13.3212 4.43674C13.3212 4.94178 13.7155 5.17331 14.0825 5.17331C14.4502 5.17331 14.8226 4.93714 14.8226 4.48696V3.44522C14.8226 3.25258 14.9012 3.13024 15.0323 3.11737C15.1641 3.10423 15.3292 3.21549 15.3689 3.41611C15.4127 3.64584 15.3941 3.68189 15.3333 3.80011L15.2986 3.8681L15.2731 3.92038C15.2131 4.04116 15.1871 4.09576 15.2064 4.12357C15.2213 4.14444 15.2607 4.14444 15.3372 4.13516C15.5893 4.10503 15.8144 4.0476 16.0194 3.96596V2.98757C16.0156 2.98808 16.012 2.98937 16.0068 2.9904C15.9156 3.00225 15.8209 3.00869 15.7428 2.93091ZM11.8651 9.32536C11.8651 9.63003 11.6042 9.87778 11.2848 9.87778C10.965 9.87778 10.7046 9.63003 10.7046 9.32536C10.7046 9.02249 10.965 8.77577 11.2848 8.77577C11.6042 8.77577 11.8651 9.02249 11.8651 9.32536ZM12.1702 3.6188L12.1715 3.62034C12.1715 3.6206 12.1702 3.62009 12.1702 3.6188ZM10.914 9.32536C10.914 9.52006 11.0803 9.67922 11.2848 9.67922C11.4896 9.67922 11.657 9.52006 11.657 9.32536C11.657 9.13195 11.4898 8.97433 11.2848 8.97433C11.0806 8.97433 10.914 9.13195 10.914 9.32536ZM14.8378 1.20591C14.7804 1.28137 14.7328 1.36739 14.7567 1.38953C14.7699 1.40112 14.7943 1.39056 14.8319 1.35837C15.1554 1.08074 15.5371 1.00812 15.9648 1.14255C15.9849 1.14925 16.0004 1.15723 16.0184 1.16419V0.741822C15.2687 0.724309 14.9275 1.08821 14.8378 1.20591ZM14.1868 7.68174C14.0271 7.89396 13.9457 8.39049 13.9457 9.15925C13.9457 10.3772 14.8865 10.5448 15.9017 10.5448C15.9417 10.5448 15.98 10.5433 16.0181 10.542V9.71064C15.9805 9.71167 15.9427 9.71347 15.9017 9.71347C15.0426 9.71347 14.7176 9.64909 14.7176 8.95863C14.7176 8.14171 15.0907 7.8118 15.6506 7.56714L16.0109 7.40618C16.0109 7.40618 16.0161 7.40412 16.0184 7.40231V6.51818C15.9267 6.55964 15.833 6.59982 15.7397 6.63999C15.1788 6.88337 14.5981 7.13447 14.1868 7.68174ZM10.138 11.3012H10.1478L10.1617 11.2924L10.0249 10.3699C10.0255 10.3213 10.0255 10.2857 10.0018 10.268C9.97678 10.2494 9.92836 10.2535 9.83436 10.2829C8.5307 10.7102 8.52632 11.2023 8.63268 12.1078C8.64015 12.1678 8.72231 12.2755 8.75295 12.2755L8.75913 12.2763L8.76634 12.2636C8.78308 12.1841 8.8315 12.0733 8.85339 12.0342C9.23404 11.3622 9.87917 11.2979 10.138 11.3012ZM10.146 11.2937V11.2943C10.1318 11.2937 10.1148 11.2937 10.0994 11.2937H10.146ZM15.2983 8.87621C15.2857 8.9303 15.3084 8.98979 15.3483 9.00575C15.3635 9.01142 15.4049 9.01709 15.4456 8.94369L15.484 8.85303C15.5723 8.63361 15.6496 8.44097 16.0181 8.40054V7.98976C15.6638 8.10668 15.3527 8.39281 15.2983 8.87621Z" fill="var(--fill-0, #E6AF07)"/>
<path id="Vector_4" d="M31.8155 21.8379C31.7537 21.0653 31.0985 20.5244 28.0045 21.2422C27.9906 20.8896 27.9774 20.5762 27.9702 20.4224C27.9437 19.828 27.3114 19.5022 26.0286 19.5434C25.3961 19.5641 25.0592 19.589 24.8218 19.6228C23.9611 18.9565 23.7046 17.8985 23.7527 16.9475L24.9979 15.5117C25.3294 15.2539 24.2171 14.1207 23.1377 14.44L21.0218 17.2271C21.0553 17.1991 21.0877 17.1767 21.1222 17.1525C20.6092 17.803 20.6468 19.0438 21.3834 20.2741C19.6414 20.5615 17.6578 20.8402 16.2478 20.8402C16.1669 20.8402 16.0832 20.8391 15.9993 20.8366C15.915 20.8391 15.8316 20.8402 15.7512 20.8402C14.3412 20.8402 12.3584 20.5615 10.6159 20.2741C11.3525 19.0438 11.3903 17.803 10.8778 17.1525C10.911 17.1767 10.9443 17.1991 10.9775 17.2271L8.86077 14.44C7.78142 14.1207 6.67014 15.2539 7.00159 15.5117L8.24679 16.9475C8.29521 17.8983 8.03741 18.9565 7.17697 19.6228C6.9403 19.589 6.60343 19.5641 5.97195 19.5434C4.68863 19.5022 4.05482 19.828 4.02881 20.4224C4.02186 20.5762 4.00795 20.8894 3.99481 21.2422C0.901249 20.5247 0.245553 21.0653 0.184258 21.8379C0.134038 22.4701 0.111117 23.7058 0.183486 24.1617C0.255854 24.6175 0.936532 24.9554 1.66949 25.0808C3.36281 25.3705 6.57897 24.9981 9.05238 22.8093C10.6105 23.1719 12.5091 23.6303 15.7515 23.6303C15.8357 23.6303 15.9171 23.6283 15.9995 23.6273C16.0827 23.6283 16.1633 23.6303 16.248 23.6303C19.491 23.6303 21.3885 23.1719 22.9472 22.8093C25.4198 24.9981 28.6372 25.3705 30.3306 25.0808C31.0633 24.9554 31.745 24.6172 31.8171 24.1617C31.8884 23.7058 31.866 22.4704 31.8155 21.8379Z" fill="var(--fill-0, #F5E7B3)"/>
<path id="Vector_5" d="M7.14571 20.7264C7.0839 20.8729 6.91599 21.8127 6.89616 22.0133C6.94612 22.0133 7.0239 22.0249 7.03162 22.0092C7.21448 21.5778 7.30719 21.1243 7.34556 20.6576C7.26933 20.6576 7.18203 20.6375 7.14571 20.7264ZM8.02083 20.73C8.07363 20.943 8.01105 22.0048 8.17278 22.3108C8.21064 22.3749 8.30104 22.2956 8.31056 22.2389C8.3819 21.7269 8.32112 21.2461 8.22094 20.7367C8.21888 20.7223 8.09372 20.73 8.02083 20.73ZM8.3152 20.4132C8.32756 20.4107 8.33683 20.3097 8.31082 20.2886C7.95464 19.9826 7.52146 20.1405 7.1197 20.1431C7.01462 20.1456 7.05145 20.2729 7.04604 20.3535C7.09704 20.3535 7.14597 20.3581 7.19619 20.3535C7.58379 20.303 7.93301 20.4969 8.3152 20.4132ZM31.9524 21.8263C31.927 21.49 31.7972 21.2412 31.5597 21.0679C31.0222 20.6767 29.9295 20.6839 28.1326 21.0875C28.1259 20.9041 28.1172 20.7042 28.1071 20.4833L28.1048 20.4158C28.0837 19.9314 27.7069 19.3645 26.0329 19.4189C25.4465 19.4372 25.1104 19.4608 24.8704 19.4915C24.4266 19.1335 24.1791 18.6862 24.0462 18.279C23.9103 17.8638 23.8649 17.4198 23.8801 16.9967L25.0957 15.5954C25.1591 15.5411 25.2564 15.4056 25.1246 15.1476C24.9041 14.7167 24.0158 14.0525 23.1096 14.3201C23.0846 14.3286 23.0614 14.3443 23.0452 14.3644L20.9279 17.151C20.905 17.1821 20.9001 17.221 20.9086 17.2573C20.8409 17.3753 20.7832 17.5053 20.742 17.6493C20.683 17.8584 20.6539 18.0807 20.6539 18.3117C20.6539 18.9025 20.8442 19.5512 21.1942 20.1794C19.4924 20.457 17.6075 20.7156 16.249 20.7156C16.1684 20.7156 16.0831 20.713 15.9999 20.7115C15.9167 20.713 15.8318 20.7156 15.7519 20.7156C14.3924 20.7156 12.5072 20.457 10.8059 20.1794C11.1546 19.5515 11.3467 18.9025 11.3467 18.3117C11.3467 18.0807 11.3179 17.8582 11.2576 17.6493C11.2159 17.5051 11.16 17.3753 11.0915 17.2573C11.101 17.221 11.0953 17.1821 11.0722 17.151L8.95416 14.3644C8.9387 14.3443 8.91578 14.3286 8.89029 14.3201C7.98272 14.0525 7.09678 14.7167 6.87504 15.1476C6.74215 15.4056 6.84259 15.5411 6.90543 15.5954L8.11895 16.9967C8.13492 17.4201 8.0914 17.8638 7.95439 18.279C7.8215 18.6862 7.57271 19.1335 7.12871 19.4915C6.89023 19.4608 6.55337 19.4372 5.96541 19.4189C4.29372 19.3645 3.91591 19.9314 3.8953 20.4158L3.89221 20.4833C3.88165 20.704 3.87419 20.9041 3.86698 21.0875C2.07115 20.6839 0.977122 20.6769 0.440667 21.0679C0.202185 21.2412 0.0744458 21.4903 0.0468891 21.8263C-0.0015284 22.4501 -0.0283125 23.7054 0.0468891 24.1805C0.13677 24.7499 0.959867 25.0863 1.63642 25.2027C3.08122 25.4504 6.41816 25.2707 9.08035 22.9433C9.08962 22.9454 9.09735 22.9479 9.10713 22.9503C10.6423 23.308 12.5528 23.7527 15.7517 23.7527C15.8359 23.7527 15.9173 23.7502 15.9997 23.7502C16.0829 23.7502 16.1645 23.7527 16.2487 23.7527C19.4463 23.7527 21.3578 23.3077 22.8925 22.9503C22.901 22.9477 22.9105 22.9451 22.9198 22.9433C25.5814 25.2707 28.9179 25.4504 30.3637 25.2027C31.0408 25.0863 31.8628 24.7499 31.9522 24.1805C32.0279 23.7054 32.0027 22.4501 31.9524 21.8263ZM26.0419 19.6661C26.8524 19.6398 27.8277 19.7514 27.8571 20.4271L27.8594 20.4941C27.9016 21.4179 27.9145 21.9731 27.9145 22.3046C27.9145 22.4321 27.9124 22.5199 27.9088 22.5884C27.6878 22.4262 27.4035 22.3803 27.0595 22.3324C25.986 22.1812 25.122 22.2464 24.2399 22.4056L24.2265 22.3177C24.2577 22.2482 24.0524 21.2031 24.0831 21.1578C24.1596 21.0439 24.5188 21.1642 24.5137 20.944C24.5096 20.7506 24.2023 20.8389 24.0555 20.824C24.0001 20.8199 24.0025 20.8104 23.9929 20.7622C23.9764 20.679 23.8933 20.2796 23.825 20.2149C23.7624 20.1547 23.6674 20.2095 23.6483 20.286C23.6125 20.4107 23.8126 20.8977 23.7341 20.9013C23.5348 20.9108 23.3303 21.0836 23.3169 21.0378C23.2803 20.9409 23.2777 20.7882 23.2064 20.6914C23.1114 20.5567 22.7784 20.6496 22.7737 20.5878C22.7663 20.4403 22.8675 20.4529 22.928 20.4202C22.9692 20.3988 23.0109 20.3707 23.0187 20.3187C23.0297 20.2587 23.032 20.1737 22.9968 20.123C23.1075 20.1029 23.2175 20.0843 23.3238 20.0655L23.5397 20.0264C23.9752 19.9507 24.208 19.8904 24.396 19.8412C24.74 19.7519 24.9293 19.7027 26.0419 19.6661ZM27.8153 23.1331C27.6791 23.2832 27.2735 23.2536 26.915 23.2279C26.5588 23.2014 26.2217 23.1789 26.018 23.3044C26.0159 23.2475 26.0149 23.189 26.0159 23.1274C26.0254 22.798 26.0996 22.5686 26.1715 22.5008C26.4432 22.5104 26.7257 22.5364 27.0244 22.5776C27.4592 22.6379 27.6992 22.6819 27.8643 22.8794C27.8787 22.9956 27.8648 23.0793 27.8153 23.1331ZM22.9834 21.0635C23.0377 21.071 23.0784 21.081 23.0784 21.1382C23.0807 21.2062 22.9782 21.2167 22.9612 21.2242C22.9373 21.2343 22.8737 21.2322 22.8639 21.2062C22.8304 21.114 22.8871 21.0488 22.9834 21.0635ZM22.7923 20.8706C22.7663 20.8359 22.7763 20.7668 22.79 20.7622C22.8044 20.7581 22.8868 20.7104 22.9252 20.7364C22.9489 20.756 22.9731 20.7954 22.961 20.824C22.9373 20.8791 22.8355 20.9219 22.7923 20.8706ZM22.9659 21.3677C22.9834 21.3084 23.2445 21.3914 23.2651 21.207C23.2705 21.1688 23.3184 21.2407 23.3993 21.2737C23.4768 21.3084 23.7055 21.191 23.8459 21.2116C23.8549 21.2157 24.0522 22.2765 24.0122 22.4352L23.568 22.5096C23.5528 21.9757 23.3081 21.4359 23.1824 21.4328C23.0658 21.4303 22.935 21.4851 22.9659 21.3677ZM22.6432 20.2309C22.6396 20.2324 22.6375 20.2118 22.6357 20.1861C22.6931 20.176 22.7518 20.1655 22.8093 20.1554C22.8044 20.1807 22.801 20.2056 22.7784 20.2214C22.7333 20.2525 22.6689 20.2239 22.6432 20.2309ZM23.2131 14.5534C23.9682 14.3538 24.7241 14.9081 24.9041 15.2604C24.9281 15.3072 24.9414 15.35 24.9414 15.3788C24.9414 15.3946 24.9373 15.4056 24.9293 15.4121C24.9237 15.4175 24.917 15.4226 24.9129 15.428C24.9129 15.428 23.1796 17.4281 22.9999 17.6336C22.6599 17.1708 22.2793 16.8878 21.8857 16.8309C21.7423 16.8082 21.6014 16.8208 21.4621 16.8579C21.9311 16.2416 23.1649 14.6178 23.2131 14.5534ZM20.9071 18.2908C20.9071 18.0794 20.9331 17.8868 20.9807 17.7173C21.0343 17.5308 21.1152 17.3691 21.2197 17.2367C21.425 17.0982 21.637 17.0436 21.851 17.0755C22.2087 17.1268 22.5677 17.4121 22.8912 17.8994C22.9123 17.9311 22.9478 17.9511 22.9872 17.9537C23.0259 17.9563 23.0624 17.9406 23.0884 17.9115L23.6342 17.2831C23.6434 17.6426 23.6965 18.0075 23.8106 18.3575C23.9394 18.7531 24.1673 19.1824 24.5536 19.5476C24.481 19.5641 24.4114 19.5806 24.3342 19.6012C24.1505 19.6491 23.9234 19.7083 23.4987 19.783L23.2826 19.8211C23.0354 19.8647 22.7722 19.91 22.4992 19.9587C22.4572 19.9561 22.4039 19.9633 22.3331 19.9867V19.9873C22.0506 20.0354 21.759 20.0856 21.4582 20.1346C21.0755 19.4727 20.9071 18.825 20.9071 18.2908ZM22.4026 20.8603L22.4299 20.8407C22.4644 20.832 22.5098 20.7861 22.545 20.824C22.5834 20.8644 22.5814 20.9368 22.5504 20.9705C22.5098 21.0156 22.408 20.9914 22.3789 20.9468C22.3601 20.9162 22.3931 20.8812 22.4026 20.8603ZM22.2816 20.3725C22.2682 20.3651 22.2733 20.2672 22.2386 20.2551C22.3001 20.2445 22.3591 20.234 22.4183 20.2239C22.4279 20.2744 22.4317 20.3259 22.4085 20.3581C22.3846 20.3947 22.3194 20.3947 22.2816 20.3725ZM22.424 21.1663C22.4647 21.1382 22.5718 21.1289 22.5929 21.1815C22.6056 21.2062 22.6228 21.2407 22.6056 21.2657C22.5814 21.2938 22.5 21.3195 22.4621 21.3105C22.4534 21.3084 22.3174 21.2407 22.424 21.1663ZM17.9595 21.5255C18.0172 21.5485 18.1002 21.5485 18.1354 21.5039C18.1929 21.438 18.1051 21.2562 18.2045 21.2479C18.5014 21.2227 18.6302 21.3875 18.7098 21.4869C18.7306 21.514 18.2853 21.8781 18.1542 22.0911C18.0049 21.9834 17.7507 21.9363 17.5588 21.8761C17.5588 21.8761 17.5279 21.7535 17.6204 21.6481C17.7375 21.7661 17.8748 21.9098 18.0765 21.9098C18.2853 21.9062 18.5557 21.5111 18.4617 21.4424C18.3137 21.3386 18.2086 21.839 17.9413 21.6633C17.846 21.6 17.6917 21.4035 17.8681 21.3757C17.9294 21.3628 17.8959 21.4988 17.9595 21.5255ZM13.177 20.7743C13.4644 20.8101 13.7485 20.8395 14.0259 20.8675C13.8327 21.0645 14.0851 21.5088 13.7908 21.671C13.7423 21.5554 13.6476 21.5796 13.5664 21.6007C13.4516 21.6278 13.4662 21.7756 13.5039 21.8171C13.6161 21.9317 13.945 21.8905 13.8575 22.1516C13.7954 22.3324 13.6713 22.5026 13.5039 22.3726C13.1703 22.1127 13.1819 21.671 13.2994 21.2562C13.3115 21.2167 13.2994 21.0349 13.1992 20.936C13.1634 20.8987 13.1557 20.8114 13.177 20.7743ZM12.9635 21.0277C13.0132 21.081 13.0753 21.1276 13.1083 21.1915C13.1876 21.3486 13.0392 21.4158 12.9635 21.5103C12.8961 21.4138 12.8005 21.3138 12.8278 21.1915C12.8425 21.1276 12.9136 21.081 12.9635 21.0277ZM7.08828 15.4283C7.08247 15.4227 7.07637 15.4173 7.07 15.4123C7.06356 15.4059 7.05866 15.3948 7.05866 15.3791C7.05866 15.3503 7.07128 15.3075 7.09678 15.2606C7.27654 14.9083 8.03088 14.3538 8.78675 14.5537C8.83491 14.6181 10.0696 16.2419 10.5378 16.8584C10.3987 16.8211 10.257 16.8087 10.1141 16.8314C9.72162 16.8883 9.34098 17.1713 9.00051 17.6341C8.82101 17.4281 7.08828 15.4283 7.08828 15.4283ZM8.18926 18.3575C8.30567 18.0078 8.35769 17.6426 8.36671 17.2831L8.91218 17.9115C8.93793 17.9406 8.97502 17.9563 9.01416 17.9537C9.05305 17.9511 9.08782 17.9311 9.10868 17.8994C9.43292 17.4119 9.79219 17.1268 10.1494 17.0755C10.3639 17.0436 10.5749 17.0982 10.7796 17.2367C10.8852 17.3694 10.9663 17.5311 11.0189 17.7173C11.0675 17.8865 11.0928 18.0791 11.0928 18.2908C11.0928 18.825 10.9238 19.4727 10.5429 20.1348C9.88825 20.0274 9.26501 19.9169 8.71928 19.8211L8.50295 19.783C8.07852 19.7083 7.84957 19.6488 7.66775 19.6012C7.59023 19.5806 7.52172 19.5641 7.44781 19.5476C7.83463 19.1824 8.06075 18.7531 8.18926 18.3575ZM0.294127 21.8467C0.315245 21.5827 0.407445 21.3988 0.586177 21.2688C1.05258 20.9286 2.15459 20.953 3.85873 21.3401C3.83298 22.0581 3.83298 22.4499 3.84946 22.6646C3.8644 22.9199 3.90045 23.1952 4.00012 23.2995C4.2247 23.5338 4.66818 23.5073 5.10317 23.4749C5.41505 23.4522 5.76942 23.4264 5.87604 23.5338C5.89227 23.5503 5.9157 23.5825 5.90901 23.6613C5.90102 23.7803 5.85827 23.8637 5.77689 23.9199C5.42766 24.1671 4.45262 23.9011 3.6679 23.6871C3.31558 23.5913 2.9831 23.5006 2.71217 23.4532C1.82288 23.3005 0.833158 23.1681 0.343317 23.5542C0.309837 23.5804 0.282795 23.6111 0.254466 23.641C0.236438 23.0808 0.258329 22.2982 0.294127 21.8467ZM4.13636 22.8794C4.30093 22.6819 4.54044 22.6379 4.97594 22.5776C5.27469 22.5364 5.55669 22.5104 5.82891 22.5008C5.90102 22.5686 5.97545 22.7978 5.98395 23.1274C5.98575 23.1887 5.98447 23.2475 5.98138 23.3044C5.77869 23.1789 5.44209 23.2016 5.08488 23.2279C4.7269 23.2536 4.3205 23.2832 4.18426 23.1331C4.13585 23.0793 4.12117 22.9956 4.13636 22.8794ZM1.67712 24.9593C0.92716 24.8303 0.362118 24.5014 0.2949 24.1561C0.309579 23.9783 0.375252 23.8452 0.496553 23.7479C0.888529 23.4416 1.77266 23.5423 2.66993 23.6976C2.93005 23.7419 3.25686 23.8321 3.60222 23.9256C4.52344 24.1769 5.47583 24.4373 5.9206 24.1236C5.93219 24.1141 5.94094 24.1051 5.95099 24.0966C5.9533 24.095 5.95717 24.095 5.95923 24.093C6.17556 23.9407 6.24226 23.4921 6.2317 23.121C6.22861 22.9804 6.20621 22.7043 6.11452 22.4965C7.0445 22.4949 7.85961 22.6626 8.78109 22.8745C6.21265 25.0286 3.05727 25.1947 1.67712 24.9593ZM12.6207 23.3399C11.1865 23.1792 10.1033 22.9268 9.16276 22.7076C8.6567 22.5902 8.18772 22.4808 7.72234 22.3994C7.71719 21.8341 7.86013 21.2245 7.77179 20.6597C7.76896 20.6471 7.64534 20.6576 7.57168 20.6576C7.60078 21.2028 7.41278 21.7965 7.44884 22.3533C6.67235 22.2345 5.88789 22.1985 4.94066 22.3322C4.59736 22.3803 4.31278 22.4259 4.09206 22.5881C4.08846 22.5196 4.08614 22.4321 4.08614 22.3043C4.08614 21.9729 4.09953 21.4176 4.14074 20.4938L4.14306 20.4269C4.17267 19.7511 5.1472 19.6396 5.9582 19.6658C7.07128 19.7027 7.26032 19.7516 7.60516 19.8412C7.79033 19.8896 8.02109 19.9497 8.44757 20.0254C8.47101 20.0385 8.49702 20.0511 8.51814 20.0622C8.71979 20.1341 8.88333 20.5397 8.88848 20.8075C8.90265 21.3563 8.62141 21.9222 8.85758 22.4614C8.86685 22.4805 8.94591 22.4674 8.9951 22.4674C8.87509 21.7669 9.39223 21.0123 9.00747 20.3455C8.97991 20.2953 8.99253 20.1657 9.0461 20.1307C10.171 20.3275 11.545 20.5639 12.8641 20.7352C12.7889 20.817 12.6362 21.0184 12.6035 21.1124C12.5012 21.4114 12.7585 21.7048 12.5368 22.0125C12.4405 22.149 12.6439 22.3582 12.6171 22.463C12.5628 22.6847 12.1513 22.8642 12.3269 23.0829C12.4678 23.2552 12.5463 22.7893 12.6468 22.8374C12.8057 22.9168 12.6913 23.2534 12.6207 23.3399ZM12.9022 21.8673C12.9901 21.8351 13.0611 22.0437 13.0949 22.1617C13.117 22.2325 13.0297 22.386 12.971 22.3677C12.7418 22.3005 12.6535 21.9621 12.9022 21.8673ZM17.8176 23.453C17.8169 23.4576 17.8218 23.461 17.8236 23.4661C17.336 23.4913 16.8122 23.505 16.2487 23.505C16.1645 23.505 16.0829 23.5029 15.9997 23.5029C15.917 23.5029 15.8356 23.505 15.7517 23.505C14.68 23.505 13.7575 23.454 12.9416 23.3739C12.9159 23.3023 12.8713 23.0607 12.9653 23.0522C13.0869 23.0412 13.2473 23.2019 13.314 23.0999C13.4665 22.8609 13.1587 22.6858 12.9635 22.5567C13.0132 22.5026 13.0869 22.4056 13.1047 22.4161C13.432 22.6185 14.0024 22.6811 14.0625 22.2304C14.1165 21.8065 14.3785 21.337 14.1482 20.9056C14.1469 20.8941 14.1449 20.8861 14.1431 20.8781C14.7212 20.9314 15.2698 20.9636 15.7519 20.9636C15.8318 20.9636 15.917 20.961 15.9999 20.9595C16.0831 20.961 16.1684 20.9636 16.249 20.9636C16.7293 20.9636 17.2747 20.9319 17.8519 20.8786L17.856 20.9144C17.856 20.9682 17.9392 21.1282 17.7185 21.1508C17.2348 21.1961 17.0806 22.3687 17.3404 22.377C17.5197 22.386 17.4311 22.1874 17.4712 22.0973C17.4901 22.0563 17.8725 22.1848 18.0149 22.3028C17.8869 22.5366 17.839 22.8109 17.8202 23.0824C17.8153 23.1818 17.8246 23.4262 17.8176 23.453ZM18.0345 23.453V23.3976C18.0667 23.1274 18.0976 22.7154 18.1805 22.5686C18.2853 22.3873 18.4409 22.7151 18.4556 22.7568C18.5102 22.9121 18.6379 23.3077 18.6443 23.411C18.4468 23.4267 18.2441 23.4414 18.0345 23.453ZM22.8373 22.7076C21.7861 22.9531 20.5566 23.2397 18.854 23.3919C18.8712 23.3739 18.8782 23.352 18.8684 23.3278C18.8684 23.3278 18.7803 22.5902 18.359 22.2248C18.4916 22.0705 18.7438 21.7432 18.846 21.7558C18.9042 21.7609 18.8578 22.0535 18.9114 22.0944C18.9457 22.1212 19.1154 22.1235 19.1208 22.0772C19.1514 21.7658 18.9694 20.944 18.1645 21.0308L18.1831 20.8861L18.1852 20.8459C19.4471 20.7148 20.8357 20.4951 22.056 20.286C22.0191 20.3025 21.9939 20.3257 21.996 20.3651C22.0014 20.5278 22.175 20.5994 22.3071 20.5757C22.3462 20.5688 22.3406 20.6612 22.3107 20.6973C22.2589 20.7516 22.0771 20.7864 22.0918 20.9991C22.1345 21.7123 22.6195 21.3659 22.6475 21.4395C22.7006 21.5801 22.3509 21.5039 22.3509 21.635C22.3537 21.816 22.7668 21.6208 22.7789 21.6626C22.8407 21.8632 22.2986 21.7313 22.3032 21.926C22.3073 22.1261 22.8507 21.916 22.8564 21.9569C22.9046 22.1545 22.5484 22.0208 22.5553 22.2142C22.5602 22.2953 22.6905 22.2863 22.7591 22.2673C22.9074 22.2248 23.0545 22.1774 23.1729 22.0762C23.2257 22.1282 23.2476 22.1987 23.2728 22.2647C23.3066 22.3561 23.287 22.455 23.3066 22.5645C23.3048 22.5776 23.3071 22.5881 23.3084 22.5997C23.1546 22.634 22.9978 22.6711 22.8373 22.7076ZM30.3222 24.9593C28.9421 25.1947 25.7877 25.0289 23.2201 22.874C24.1415 22.6621 24.9564 22.4944 25.8864 22.4959C25.7944 22.7038 25.7725 22.9799 25.7684 23.1205C25.7584 23.4916 25.8251 23.9405 26.0411 24.0924C26.0437 24.0945 26.0465 24.0945 26.0502 24.096C26.0607 24.1045 26.0684 24.1136 26.079 24.1231C26.5245 24.437 27.4774 24.1764 28.3987 23.925C28.745 23.8318 29.0714 23.7414 29.3307 23.6971C30.228 23.5418 31.1129 23.4411 31.5028 23.7473C31.6254 23.8447 31.6905 23.9778 31.7052 24.1555C31.637 24.5012 31.0732 24.8303 30.3222 24.9593ZM31.7459 23.6405C31.7183 23.6106 31.6898 23.5799 31.6568 23.5537C31.1664 23.1676 30.1765 23.3002 29.2892 23.4527C29.0175 23.5004 28.6845 23.5908 28.3338 23.6866C27.5488 23.9006 26.5724 24.1666 26.2232 23.9194C26.1418 23.8632 26.1001 23.7798 26.0908 23.6608C26.0852 23.582 26.1066 23.5498 26.1243 23.5333C26.2304 23.4259 26.5848 23.4517 26.8969 23.4743C27.3319 23.5068 27.7752 23.5333 27.9995 23.299C28.0986 23.1947 28.1347 22.9193 28.1512 22.6641C28.1679 22.4493 28.1674 22.0579 28.1424 21.3396C29.8458 20.9525 30.9473 20.9278 31.4134 21.2683C31.5919 21.3983 31.6851 21.5822 31.7062 21.8462C31.7423 22.2982 31.7639 23.0808 31.7459 23.6405Z" fill="var(--fill-0, #73146B)"/>
</g>
</svg>
