<svg preserveAspectRatio="none" width="100%" height="100%" overflow="visible" style="display: block;" viewBox="0 0 12 12" fill="none" xmlns="http://www.w3.org/2000/svg">
<g id="Date Icon Container">
<path id="Subtract" d="M6 0C9.31371 0 12 2.68629 12 6C12 9.31371 9.31371 12 6 12C2.68629 12 0 9.31371 0 6C0 2.68629 2.68629 0 6 0ZM9.39746 4.10254C9.17779 3.88287 8.82221 3.88287 8.60254 4.10254L4.875 7.83008L3.39746 6.35254C3.17779 6.13287 2.82221 6.13287 2.60254 6.35254C2.38287 6.57221 2.38287 6.92779 2.60254 7.14746L4.47754 9.02246C4.69721 9.24213 5.05279 9.24213 5.27246 9.02246L9.39746 4.89746C9.61713 4.67779 9.61713 4.32221 9.39746 4.10254Z" fill="var(--fill-0, #0080FF)"/>
</g>
</svg>
