<svg preserveAspectRatio="none" width="100%" height="100%" overflow="visible" style="display: block;" viewBox="0 0 18 18" fill="none" xmlns="http://www.w3.org/2000/svg">
<g id="lucide/drone">
<g clip-path="url(#clip0_0_8)">
<rect width="18" height="18" rx="9" fill="var(--fill-0, #1A1A1A)"/>
<path id="Vector" d="M8.09927 8.10015L6.74927 6.75015M8.09927 9.90015L6.74927 11.2501M9.89927 8.10015L11.2493 6.75015M9.89927 9.90015L11.2493 11.2501M9.9915 5.46274C10.1634 5.29484 10.3672 5.16305 10.5908 5.07515C10.8144 4.98724 11.0534 4.945 11.2936 4.95091C11.5338 4.95683 11.7704 5.01077 11.9894 5.10957C12.2085 5.20837 12.4055 5.35003 12.5689 5.52619C12.7323 5.70234 12.8588 5.90943 12.9409 6.13525C13.023 6.36107 13.0591 6.60104 13.047 6.84102C13.0349 7.081 12.9749 7.31613 12.8705 7.53254C12.766 7.74895 12.6194 7.94227 12.4391 8.10109M12.4359 9.90015C12.6177 10.0584 12.7659 10.2515 12.8716 10.4681C12.9774 10.6847 13.0385 10.9203 13.0515 11.161C13.0645 11.4016 13.029 11.6424 12.9472 11.8691C12.8653 12.0958 12.7388 12.3038 12.5751 12.4806C12.4113 12.6575 12.2137 12.7997 11.994 12.8988C11.7743 12.9978 11.5369 13.0518 11.296 13.0574C11.055 13.063 10.8154 13.0201 10.5913 12.9314C10.3673 12.8427 10.1633 12.7098 9.9915 12.5407M5.56441 8.10012C5.38243 7.9418 5.23413 7.74852 5.12831 7.53175C5.0225 7.31499 4.96133 7.07917 4.94844 6.8383C4.93555 6.59743 4.97121 6.35643 5.05329 6.12962C5.13537 5.9028 5.2622 5.69479 5.42625 5.51795C5.59029 5.34112 5.78821 5.19905 6.00824 5.10021C6.22827 5.00136 6.46592 4.94774 6.70707 4.94255C6.94823 4.93735 7.18797 4.98067 7.41205 5.06995C7.63614 5.15922 7.83999 5.29262 8.01151 5.46222M8.00701 12.5381C7.83466 12.7049 7.63071 12.8356 7.40714 12.9225C7.18357 13.0094 6.94489 13.0507 6.70512 13.044C6.46535 13.0374 6.22933 12.9829 6.01093 12.8837C5.79252 12.7845 5.59614 12.6427 5.43332 12.4666C5.2705 12.2904 5.14453 12.0835 5.0628 11.858C4.98108 11.6325 4.94524 11.3929 4.95742 11.1534C4.96959 10.9138 5.02951 10.6791 5.13367 10.4631C5.23783 10.247 5.38413 10.0539 5.56396 9.8952M8.54927 7.20015H9.44927C9.6978 7.20015 9.89927 7.40162 9.89927 7.65015V10.3501C9.89927 10.5987 9.6978 10.8001 9.44927 10.8001H8.54927C8.30075 10.8001 8.09927 10.5987 8.09927 10.3501V7.65015C8.09927 7.40162 8.30075 7.20015 8.54927 7.20015Z" stroke="var(--stroke-0, white)" stroke-width="0.72" stroke-linecap="round" stroke-linejoin="round"/>
</g>
</g>
<defs>
<clipPath id="clip0_0_8">
<rect width="18" height="18" rx="9" fill="white"/>
</clipPath>
</defs>
</svg>
