<svg preserveAspectRatio="none" width="100%" height="100%" overflow="visible" style="display: block;" viewBox="0 0 18 18" fill="none" xmlns="http://www.w3.org/2000/svg">
<g id="lucide/component">
<g clip-path="url(#clip0_0_22)">
<rect width="18" height="18" rx="9" fill="var(--fill-0, #1A1A1A)"/>
<g id="Vector">
<path d="M10.5912 8.68191C10.5068 8.7663 10.4594 8.88074 10.4594 9.00006C10.4594 9.11938 10.5068 9.23382 10.5912 9.31821L11.6604 10.3879C11.7448 10.4722 11.8592 10.5196 11.9785 10.5196C12.0978 10.5196 12.2123 10.4722 12.2967 10.3879L13.3663 9.31821C13.4507 9.23382 13.4981 9.11938 13.4981 9.00006C13.4981 8.88074 13.4507 8.7663 13.3663 8.68191L12.2967 7.61226C12.2123 7.5279 12.0978 7.48051 11.9785 7.48051C11.8592 7.48051 11.7448 7.5279 11.6604 7.61226L10.5912 8.68191Z" stroke="var(--stroke-0, white)" stroke-width="0.72" stroke-linecap="round" stroke-linejoin="round"/>
<path d="M4.63367 8.68191C4.54931 8.7663 4.50192 8.88074 4.50192 9.00006C4.50192 9.11938 4.54931 9.23382 4.63367 9.31821L5.70332 10.3879C5.78771 10.4722 5.90215 10.5196 6.02147 10.5196C6.1408 10.5196 6.25524 10.4722 6.33962 10.3879L7.40927 9.31821C7.49364 9.23382 7.54103 9.11938 7.54103 9.00006C7.54103 8.88074 7.49364 8.7663 7.40927 8.68191L6.33962 7.61226C6.25524 7.5279 6.1408 7.48051 6.02147 7.48051C5.90215 7.48051 5.78771 7.5279 5.70332 7.61226L4.63367 8.68191Z" stroke="var(--stroke-0, white)" stroke-width="0.72" stroke-linecap="round" stroke-linejoin="round"/>
<path d="M7.61218 11.6604C7.57034 11.7022 7.53715 11.7518 7.51451 11.8065C7.49186 11.8611 7.4802 11.9196 7.4802 11.9788C7.4802 12.0379 7.49186 12.0965 7.51451 12.1511C7.53715 12.2057 7.57034 12.2554 7.61218 12.2972L8.68183 13.3664C8.76622 13.4507 8.88066 13.4981 8.99998 13.4981C9.11931 13.4981 9.23375 13.4507 9.31813 13.3664L10.3878 12.2972C10.4296 12.2554 10.4628 12.2057 10.4855 12.1511C10.5081 12.0965 10.5198 12.0379 10.5198 11.9788C10.5198 11.9196 10.5081 11.8611 10.4855 11.8065C10.4628 11.7518 10.4296 11.7022 10.3878 11.6604L9.31813 10.5912C9.23375 10.5068 9.11931 10.4594 8.99998 10.4594C8.88066 10.4594 8.76622 10.5068 8.68183 10.5912L7.61218 11.6604Z" stroke="var(--stroke-0, white)" stroke-width="0.72" stroke-linecap="round" stroke-linejoin="round"/>
<path d="M7.61218 5.7033C7.52782 5.78768 7.48042 5.90212 7.48042 6.02145C7.48042 6.14077 7.52782 6.25521 7.61218 6.3396L8.68183 7.4088C8.76622 7.49316 8.88065 7.54055 8.99998 7.54055C9.1193 7.54055 9.23374 7.49316 9.31813 7.4088L10.3878 6.3396C10.4721 6.25521 10.5195 6.14077 10.5195 6.02145C10.5195 5.90212 10.4721 5.78768 10.3878 5.7033L9.31813 4.63365C9.23374 4.54928 9.1193 4.50189 8.99998 4.50189C8.88065 4.50189 8.76622 4.54928 8.68183 4.63365L7.61218 5.7033Z" stroke="var(--stroke-0, white)" stroke-width="0.72" stroke-linecap="round" stroke-linejoin="round"/>
</g>
</g>
</g>
<defs>
<clipPath id="clip0_0_22">
<rect width="18" height="18" rx="9" fill="white"/>
</clipPath>
</defs>
</svg>
