<svg preserveAspectRatio="none" width="100%" height="100%" overflow="visible" style="display: block;" viewBox="0 0 32 30.6906" fill="none" xmlns="http://www.w3.org/2000/svg">
<g id="Group">
<path id="Vector" fill-rule="evenodd" clip-rule="evenodd" d="M29.856 11.6509C29.856 11.6509 29.3578 9.92075 29.2924 9.81566L29.8822 9.57966L30.0778 10.1698L29.8815 10.2353L29.7644 9.88111L29.5556 9.9862L29.7251 10.5367L30.3804 10.3138C30.3804 10.3138 30.2229 9.64548 30.0004 9.25202L28.9516 9.67166C28.9516 9.67166 29.6724 11.8473 29.6593 11.9524L30.7364 11.6742C30.7364 11.6742 30.5505 10.7524 30.472 10.6607L29.856 10.8382L30.0182 11.4018L30.236 11.3455L30.1444 10.9691L30.344 10.9087C30.344 10.9087 30.472 11.4673 30.472 11.5327L30.0135 11.6509H29.856ZM28.9455 9.06766C28.9455 9.06766 28.0865 7.48511 28 7.39675L28.5255 7.0393L28.8433 7.57348L28.6651 7.67966L28.4749 7.35929L28.2938 7.50657L28.5775 8.00766L29.1698 7.64911C29.1698 7.64911 28.872 7.0302 28.5698 6.69384L27.6364 7.32948C27.6364 7.32948 28.8084 9.29929 28.8182 9.40439L29.8102 8.90075C29.8102 8.90075 29.4305 8.04075 29.3342 7.96802L28.7705 8.2742L29.0505 8.78948L29.2509 8.68766L29.0804 8.34002L29.2622 8.2382C29.2622 8.2382 29.5076 8.75602 29.5215 8.82002L29.0989 9.03384L28.9455 9.06766ZM27.5665 6.66439C27.5665 6.66439 26.4058 5.28802 26.3033 5.2193L26.7455 4.76293L27.1647 5.22184L27.012 5.36184L26.7607 5.08657L26.6127 5.2673L26.9924 5.70075L27.4996 5.22984C27.4996 5.22984 27.0833 4.68366 26.7193 4.41566L25.9331 5.22657C25.9331 5.22657 27.4793 6.91893 27.5102 7.02002L28.3796 6.32657C28.3796 6.32657 27.8342 5.56075 27.7251 5.50911L27.2349 5.92257L27.6131 6.37093L27.7887 6.23057L27.5516 5.92439L27.7091 5.78766C27.7091 5.78766 28.0542 6.24584 28.0807 6.30548L27.7098 6.60039L27.5665 6.66439ZM25.6818 4.62584C25.6818 4.62584 24.3091 3.46184 24.1964 3.41093L24.5564 2.8873L25.0465 3.2702L24.9189 3.43384L24.6255 3.20402L24.5098 3.40693L24.956 3.77129L25.3778 3.22293C25.3778 3.22293 24.8767 2.75348 24.4735 2.54948L23.8327 3.47966C23.8327 3.47966 25.6385 4.89166 25.6855 4.9862L26.428 4.15784C26.428 4.15784 25.7625 3.49348 25.6465 3.46075L25.232 3.94984L25.6793 4.32911L25.8295 4.16148L25.5447 3.89929L25.6775 3.7382C25.6775 3.7382 26.0935 4.13202 26.1298 4.18693L25.8135 4.5393L25.6825 4.62657L25.6818 4.62584ZM23.5116 2.94839C23.5116 2.94839 21.9375 2.07384 21.8171 2.04584L22.0684 1.46257L22.6233 1.74257L22.5302 1.92766L22.1975 1.75929L22.124 1.98111L22.6324 2.25129L22.9393 1.63093C22.9393 1.63093 22.3564 1.26839 21.9211 1.1473L21.4738 2.18439C21.4738 2.18439 23.5204 3.21711 23.5851 3.30075L24.1516 2.3433C24.1516 2.3433 23.3698 1.82148 23.2495 1.81202L22.9378 2.37239L23.4505 2.65748L23.5651 2.46366L23.2349 2.26184L23.3338 2.0782C23.3338 2.0782 23.8185 2.38366 23.8647 2.42984L23.6229 2.83711L23.5116 2.94839ZM20.9844 1.7273C20.9844 1.7273 19.2571 1.21966 19.1331 1.21893L19.2502 0.594204L19.8531 0.745477L19.8029 0.946568L19.4415 0.855659L19.4182 1.08802L19.9735 1.24039L20.1371 0.567659C20.1371 0.567659 19.4884 0.341841 19.0371 0.318932L18.8287 1.42911C18.8287 1.42911 21.052 1.98766 21.1335 2.05457L21.476 0.996386C21.476 0.996386 20.5985 0.658932 20.4789 0.676386L20.2985 1.2913L20.8611 1.45675L20.9302 1.2422L20.5636 1.1182L20.6196 0.917477C20.6196 0.917477 21.16 1.10875 21.2153 1.14402L21.0687 1.5942L20.9844 1.7273ZM18.3189 1.01566C18.3189 1.01566 16.5247 0.863659 16.4033 0.887295L16.3935 0.252386L17.0142 0.280023L17.0055 0.487295L16.6331 0.470204L16.6564 0.702568L17.2309 0.74075L17.2571 0.04875C17.2571 0.04875 16.5764 -0.0428866 16.1298 0.0251134L16.1473 1.1542C16.1473 1.1542 18.4371 1.25748 18.5302 1.30693L18.6545 0.201477C18.6545 0.201477 17.7273 0.0462043 17.6138 0.0869316L17.5596 0.725841L18.144 0.775295L18.1691 0.551659L17.7851 0.503295L17.7996 0.294932C17.7996 0.294932 18.3669 0.374931 18.4287 0.398204L18.3749 0.86875L18.3189 1.01566ZM15.5367 0.858568C15.5367 0.858568 13.74 0.973841 13.6236 1.01493L13.5196 0.38875L14.1378 0.324023L14.1596 0.530204L13.7887 0.568386L13.8465 0.794932L14.4204 0.747659L14.3433 0.0592952C14.3433 0.0592952 13.6567 0.0698408 13.2247 0.202932L13.4095 1.31711C13.4095 1.31711 15.6895 1.08002 15.7891 1.11529L15.7484 0.00365885C15.7484 0.00365885 14.8084 -0.012705 14.7018 0.0443859L14.7433 0.684386L15.3287 0.646568L15.32 0.421841L14.9331 0.430568L14.9167 0.222568C14.9167 0.222568 15.4898 0.217477 15.5538 0.231295L15.5705 0.70475L15.5367 0.858568ZM12.7862 1.20002C12.7862 1.20002 11.0487 1.67275 10.9429 1.73675L10.7156 1.14402L11.3084 0.95675L11.3709 1.1542L11.0153 1.2662L11.1171 1.47639L11.6702 1.31493L11.4571 0.656386C11.4571 0.656386 10.7862 0.803659 10.3898 1.02111L10.7938 2.07566C10.7938 2.07566 12.98 1.38657 13.0847 1.40111L12.8222 0.320386C12.8222 0.320386 11.8982 0.492386 11.8051 0.56984L11.9735 1.18839L12.5396 1.0342L12.4862 0.816022L12.1087 0.90184L12.0513 0.701477C12.0513 0.701477 12.6116 0.581477 12.6775 0.582568L12.7887 1.04293L12.7862 1.20002ZM10.1949 2.07275C10.1949 2.07275 8.59855 2.90548 8.50873 2.9902L8.16 2.4593L8.69927 2.1502L8.80255 2.32948L8.47891 2.51493L8.62327 2.69857L9.12945 2.42293L8.78036 1.82475C8.78036 1.82475 8.15673 2.11202 7.81564 2.40875L8.43527 3.35311C8.43527 3.35311 10.4244 2.21348 10.5298 2.20548L10.0425 1.20548C10.0425 1.20548 9.17636 1.57057 9.10218 1.66584L9.39855 2.23457L9.91855 1.9633L9.82 1.76111L9.46982 1.92584L9.37055 1.7422C9.37055 1.7422 9.89273 1.50548 9.95673 1.49239L10.164 1.91857L10.1949 2.07275ZM7.74436 3.45093C7.74436 3.45093 6.34909 4.58911 6.27818 4.69093L5.82945 4.24111L6.29491 3.82948L6.43273 3.98439L6.15309 4.23093L6.33127 4.38184L6.77127 4.00948L6.30873 3.49457C6.30873 3.49457 5.756 3.90184 5.48182 4.26148L6.27964 5.06075C6.27964 5.06075 7.99709 3.54257 8.09891 3.51348L7.41964 2.63275C7.41964 2.63275 6.64509 3.16548 6.59164 3.27384L6.99673 3.77057L7.45127 3.39966L7.31382 3.22148L7.004 3.4542L6.87018 3.2942C6.87018 3.2942 7.33345 2.95675 7.39382 2.93093L7.68255 3.30657L7.74436 3.45093ZM5.66109 5.27566C5.66109 5.27566 4.46473 6.62111 4.41127 6.73275L3.89673 6.36002L4.29055 5.88002L4.45127 6.01093L4.21455 6.29893L4.41455 6.41929L4.78946 5.98184L4.25091 5.54693C4.25091 5.54693 3.76982 6.03711 3.55636 6.43566L4.47164 7.09784C4.47164 7.09784 5.92545 5.32548 6.02073 5.28075L5.21018 4.5193C5.21018 4.5193 4.53018 5.16839 4.49491 5.28402L4.97418 5.70984L5.364 5.27166L5.19964 5.11748L4.93091 5.39602L4.77309 5.25966C4.77309 5.25966 5.17673 4.85275 5.232 4.81784L5.57709 5.14257L5.66109 5.27566ZM3.944 7.41457C3.944 7.41457 3.04436 8.9742 3.01455 9.09457L2.43527 8.83348L2.724 8.28293L2.90764 8.37893L2.73418 8.70911L2.95455 8.78657L3.23309 8.28257L2.61782 7.96511C2.61782 7.96511 2.24582 8.54257 2.11745 8.97602L3.14727 9.43966C3.14727 9.43966 4.21273 7.41057 4.29745 7.34657L3.34982 6.76475C3.34982 6.76475 2.81527 7.5382 2.80364 7.65857L3.35927 7.97857L3.652 7.47057L3.46036 7.35311L3.25309 7.68038L3.07127 7.57857C3.07127 7.57857 3.384 7.09857 3.43127 7.05311L3.83491 7.30148L3.944 7.41457ZM2.70909 9.92657C2.70909 9.92657 2.12691 11.6302 2.12036 11.7538L1.50182 11.6095L1.67927 11.0138L1.87782 11.0727L1.77127 11.4298L2.00218 11.4633L2.17855 10.9149L1.51382 10.7222C1.51382 10.7222 1.26 11.3607 1.21745 11.8106L2.31745 12.0673C2.31745 12.0673 2.972 9.8702 3.04291 9.79202L2.00073 9.40329C2.00073 9.40329 1.62509 10.2651 1.63709 10.3851L2.24364 10.5927L2.43345 10.0378L2.22255 9.95929L2.08255 10.32L1.884 10.2553C1.884 10.2553 2.09891 9.72439 2.13636 9.67057L2.58 9.83639L2.70909 9.92657ZM0.253455 11.8778C0.253455 11.8778 0.969818 12.0706 1.24982 12.4986C1.24982 12.4986 1.65164 11.8778 1.88764 12.3062L2.04473 12.6382C2.04473 12.6382 2.82291 12.2455 3.18073 12.5073C3.18073 12.5073 2.61273 12.5509 2.45564 13.1451C2.45564 13.1451 2.25455 14.0717 1.58182 14.4124L1.56436 14.7182C1.56436 14.7182 1.77382 14.928 1.80909 15.0855C1.80909 15.0855 2.28945 14.6833 2.90982 14.7357C2.90982 14.7357 2.23709 15.0764 2.22836 15.9855C2.22836 15.9855 2.14982 16.7807 1.61673 16.9378V17.296C1.61673 17.296 1.89636 17.3575 1.96618 17.5582C1.96618 17.5582 2.34218 17.0775 3.02364 17.0338C3.02364 17.0338 2.46436 17.3837 2.55164 18.5022C2.55164 18.5022 2.44691 19.1138 2.16727 19.3931L2.21091 19.6731C2.21091 19.6731 2.52545 19.7866 2.59527 19.944C2.59527 19.944 3.16327 19.2186 3.55673 19.2713C3.55673 19.2713 3.03236 19.7604 3.34691 20.4684C3.34691 20.4684 3.53055 21.1673 3.14582 21.7793L3.27673 21.9887C3.27673 21.9887 3.58291 22.0415 3.68764 22.2946C3.68764 22.2946 3.73127 21.6044 4.47418 21.3858C4.47418 21.3858 4.00218 22.0411 4.59673 22.8626C4.59673 22.8626 4.73636 23.3171 4.50036 23.8677L4.684 24.1298C4.684 24.1298 5.00764 24.1473 5.07709 24.2786C5.07709 24.2786 5.21709 23.3607 5.74982 23.2647C5.74982 23.2647 5.38327 24.0513 5.86364 24.3571C5.86364 24.3571 6.45782 25.0124 6.21346 25.7902L6.41418 25.9913C6.41418 25.9913 6.72873 25.904 6.85127 26.0437C6.85127 26.0437 6.79891 25.3182 7.30582 24.8989C7.30582 24.8989 7.08727 25.7378 7.79491 26.1571C7.79491 26.1571 8.28436 26.6815 8.18836 27.3197L8.39782 27.5029C8.39782 27.5029 8.45927 27.6167 8.25818 27.5902L8.03091 27.4855C8.03091 27.4855 7.31455 27.7738 6.86 27.5029C6.86 27.5029 6.25709 27.0222 5.36546 27.1011C5.36546 27.1011 5.584 26.7164 6.30946 26.6029C6.30946 26.6029 6.23964 26.3582 6.28327 26.1397L6.09091 25.9302C6.09091 25.9302 5.05964 26.0175 4.68364 25.6502C4.68364 25.6502 4.33455 25.0473 3.46909 25.1084C3.46909 25.1084 3.57418 24.8029 4.53527 24.7327C4.53527 24.7327 4.43927 24.488 4.48291 24.2611L4.27309 23.9724C4.27309 23.9724 3.59164 24.1473 3.08473 23.5269C3.08473 23.5269 2.63018 22.8542 1.90509 22.7142C1.90509 22.7142 2.44691 22.496 3.04109 22.5917C3.04109 22.5917 2.98873 22.2771 3.04109 22.1113L2.91891 21.884C2.91891 21.884 2.176 21.9102 1.748 21.0975C1.748 21.0975 1.372 20.3197 0.734182 20.1626C0.734182 20.1626 1.34582 19.9789 1.94 20.2324C1.94 20.2324 1.92255 19.9702 2.01855 19.7517L1.96618 19.4546C1.96618 19.4546 1.11855 19.2186 0.934909 18.4757C0.934909 18.4757 0.681455 17.7767 0.122182 17.4357C0.122182 17.4357 0.681818 17.4011 1.29309 17.6546C1.29309 17.6546 1.30218 17.4273 1.43309 17.3309L1.41564 16.9466C1.41564 16.9466 0.760364 16.8244 0.594182 15.9855C0.594182 15.9855 0.559273 15.2251 0 14.6484C0 14.6484 0.602909 14.6746 1.03127 15.0938C1.03127 15.0938 1.17964 14.7793 1.26727 14.7444L1.276 14.3687C1.276 14.3687 0.760364 14.1502 0.690546 13.4247C0.690546 13.4247 0.777818 12.2887 0.279636 11.9567L0.222545 11.8713L0.253455 11.8778ZM31.7465 11.8778C31.7465 11.8778 31.0298 12.0706 30.7502 12.4986C30.7502 12.4986 30.3484 11.8778 30.1124 12.3062L29.9553 12.6382C29.9553 12.6382 29.1775 12.2455 28.8189 12.5073C28.8189 12.5073 29.3869 12.5509 29.5444 13.1451C29.5444 13.1451 29.7455 14.0717 30.4182 14.4124L30.4356 14.7182C30.4356 14.7182 30.2262 14.928 30.1913 15.0855C30.1913 15.0855 29.7105 14.6833 29.0898 14.7357C29.0898 14.7357 29.7629 15.0764 29.7716 15.9855C29.7716 15.9855 29.8502 16.7807 30.3833 16.9378V17.296C30.3833 17.296 30.1036 17.3575 30.0338 17.5582C30.0338 17.5582 29.6582 17.0775 28.9764 17.0338C28.9764 17.0338 29.5356 17.3837 29.4484 18.5022C29.4484 18.5022 29.5531 19.1138 29.8327 19.3931L29.7891 19.6731C29.7891 19.6731 29.4745 19.7866 29.4047 19.944C29.4047 19.944 28.8364 19.2186 28.4433 19.2713C28.4433 19.2713 28.9676 19.7604 28.6531 20.4684C28.6531 20.4684 28.4695 21.1673 28.8538 21.7793L28.7229 21.9887C28.7229 21.9887 28.4175 22.0415 28.312 22.2946C28.312 22.2946 28.2684 21.6044 27.5258 21.3858C27.5258 21.3858 27.9975 22.0411 27.4033 22.8626C27.4033 22.8626 27.2636 23.3171 27.4996 23.8677L27.316 24.1298C27.316 24.1298 26.9927 24.1473 26.9225 24.2786C26.9225 24.2786 26.7829 23.3607 26.2498 23.2647C26.2498 23.2647 26.6171 24.0513 26.1364 24.3571C26.1364 24.3571 25.5422 25.0124 25.7865 25.7902L25.5858 25.9913C25.5858 25.9913 25.2713 25.904 25.1487 26.0437C25.1487 26.0437 25.2011 25.3182 24.6942 24.8989C24.6942 24.8989 24.9127 25.7378 24.2051 26.1571C24.2051 26.1571 23.7156 26.6815 23.812 27.3197L23.6022 27.5029C23.6022 27.5029 23.5407 27.6167 23.7418 27.5902L23.9691 27.4855C23.9691 27.4855 24.6855 27.7738 25.14 27.5029C25.14 27.5029 25.7429 27.0222 26.6345 27.1011C26.6345 27.1011 26.4164 26.7164 25.6905 26.6029C25.6905 26.6029 25.7604 26.3582 25.7167 26.1397L25.9095 25.9302C25.9095 25.9302 26.9404 26.0175 27.316 25.6502C27.316 25.6502 27.6655 25.0473 28.5305 25.1084C28.5305 25.1084 28.4258 24.8029 27.4647 24.7327C27.4647 24.7327 27.5607 24.488 27.5171 24.2611L27.7265 23.9724C27.7265 23.9724 28.4084 24.1473 28.9153 23.5269C28.9153 23.5269 29.3695 22.8542 30.0949 22.7142C30.0949 22.7142 29.5531 22.496 28.9589 22.5917C28.9589 22.5917 29.0113 22.2771 28.9589 22.1113L29.0811 21.884C29.0811 21.884 29.824 21.9102 30.2524 21.0975C30.2524 21.0975 30.628 20.3197 31.2658 20.1626C31.2658 20.1626 30.6542 19.9789 30.06 20.2324C30.06 20.2324 30.0775 19.9702 29.9815 19.7517L30.0338 19.4546C30.0338 19.4546 30.8815 19.2186 31.0651 18.4757C31.0651 18.4757 31.3185 17.7767 31.8778 17.4357C31.8778 17.4357 31.3185 17.4011 30.7065 17.6546C30.7065 17.6546 30.6978 17.4273 30.5669 17.3309L30.5844 16.9466C30.5844 16.9466 31.2396 16.8244 31.4058 15.9855C31.4058 15.9855 31.4407 15.2251 32 14.6484C32 14.6484 31.3971 14.6746 30.9687 15.0938C30.9687 15.0938 30.8204 14.7793 30.7327 14.7444L30.724 14.3687C30.724 14.3687 31.2396 14.1502 31.3098 13.4247C31.3098 13.4247 31.2222 12.2887 31.7204 11.9567L31.7775 11.8713L31.7465 11.8778Z" fill="var(--fill-0, #FF0000)"/>
<path id="Vector_2" fill-rule="evenodd" clip-rule="evenodd" d="M5.02303 20.4949L4.78085 19.9858L4.86013 19.9484L4.8954 20.0051C4.90493 20.0236 4.91832 20.0399 4.93467 20.0527C4.95134 20.066 4.97229 20.0727 4.99358 20.0716C5.02015 20.0691 5.04604 20.0617 5.06994 20.0498L5.63394 19.7815L5.35976 19.2051L4.80812 19.4676C4.78545 19.4777 4.76467 19.4916 4.74667 19.5087C4.731 19.5258 4.72119 19.5475 4.71867 19.5706C4.71842 19.6136 4.72581 19.6563 4.74049 19.6967L4.66122 19.7349L4.41903 19.2258L4.49831 19.188L4.53358 19.2451C4.54315 19.2635 4.55654 19.2796 4.57285 19.2924C4.58967 19.3054 4.61052 19.3121 4.63176 19.3113C4.65851 19.3097 4.68459 19.3023 4.70812 19.2895L5.85212 18.7451C5.87564 18.734 5.89564 18.7199 5.91212 18.7029C5.92765 18.686 5.93745 18.6646 5.94012 18.6418C5.94239 18.6188 5.9419 18.5956 5.93867 18.5727C5.93634 18.5511 5.93159 18.5297 5.92449 18.5091L6.00376 18.4716L6.24594 18.9807L6.16703 19.0182C6.15589 18.9989 6.14298 18.9806 6.12849 18.9636C6.11593 18.9477 6.10206 18.9329 6.08703 18.9193C6.07838 18.9119 6.06826 18.9065 6.05736 18.9034C6.04645 18.9002 6.03499 18.8995 6.02376 18.9011C5.99851 18.905 5.97399 18.9128 5.95103 18.924L5.4594 19.1578L5.73358 19.7338L6.21394 19.5055C6.23621 19.4948 6.25649 19.4804 6.27394 19.4629C6.28947 19.446 6.29927 19.4246 6.30194 19.4018C6.30363 19.3789 6.30314 19.3559 6.30049 19.3331C6.29816 19.3114 6.2934 19.2901 6.28631 19.2695L6.36558 19.2316L6.60813 19.7407L6.52849 19.7782C6.51757 19.7589 6.50491 19.7406 6.49067 19.7236C6.47798 19.7078 6.46399 19.6931 6.44885 19.6796C6.4402 19.6723 6.43008 19.6669 6.41917 19.6637C6.40826 19.6606 6.39681 19.6598 6.38558 19.6615C6.36034 19.6653 6.33583 19.6729 6.31285 19.684L5.16994 20.228C5.14737 20.2383 5.12671 20.2523 5.10885 20.2695C5.09312 20.2864 5.08319 20.3079 5.08049 20.3309C5.07911 20.3516 5.08071 20.3725 5.08522 20.3927C5.08893 20.4147 5.09465 20.4362 5.10231 20.4571L5.02303 20.4949ZM7.51249 21.3582C7.49598 21.3372 7.4772 21.318 7.45649 21.3011C7.43331 21.2797 7.40577 21.2636 7.37576 21.2538C7.34813 21.2463 7.30728 21.2555 7.25322 21.2815C7.1994 21.3074 7.13661 21.3443 7.06485 21.392L6.42994 21.8153C6.34897 21.8691 6.26994 21.903 6.19285 21.9171C6.09939 21.9369 6.00216 21.9283 5.91361 21.8924C5.82506 21.8566 5.7492 21.7952 5.69576 21.716C5.65325 21.6543 5.62391 21.5845 5.60958 21.5109C5.59725 21.4461 5.59862 21.3795 5.61358 21.3153C5.62885 21.2537 5.65576 21.1971 5.69431 21.1455C5.73285 21.0938 5.77952 21.0497 5.83431 21.0131L6.69794 20.4371C6.71864 20.4239 6.73695 20.4073 6.75213 20.388C6.76503 20.368 6.77208 20.3449 6.77249 20.3211C6.77292 20.2984 6.76909 20.2758 6.76122 20.2546C6.75524 20.2347 6.74758 20.2153 6.73831 20.1967L6.81103 20.148L7.12485 20.6182L7.05176 20.6669C7.03784 20.6489 7.02226 20.6322 7.00522 20.6171C6.99025 20.6027 6.97407 20.5895 6.95685 20.5778C6.94722 20.5717 6.9364 20.5678 6.92511 20.5662C6.91382 20.5646 6.90233 20.5655 6.8914 20.5687C6.86685 20.5761 6.84356 20.5871 6.82231 20.6015L6.01503 21.1396C5.9742 21.1676 5.93533 21.1984 5.89867 21.2316C5.86131 21.2661 5.82975 21.3064 5.80522 21.3509C5.78136 21.396 5.76888 21.4461 5.76885 21.4971C5.76885 21.5485 5.78946 21.6053 5.83067 21.6676C5.86946 21.7258 5.91406 21.7667 5.96449 21.7902C6.01352 21.8132 6.06749 21.8237 6.12158 21.8207C6.17297 21.8178 6.22206 21.8074 6.26885 21.7895C6.3154 21.7715 6.35903 21.7487 6.39976 21.7211L6.99903 21.3218C7.0754 21.2709 7.13479 21.2251 7.17722 21.1844C7.22037 21.1436 7.24388 21.1102 7.24776 21.084C7.25243 21.0493 7.24869 21.014 7.23685 20.9811C7.22904 20.9518 7.21819 20.9234 7.20449 20.8964L7.27758 20.8476L7.58558 21.3095L7.51249 21.3582ZM8.67103 22.7258C8.6496 22.7071 8.62604 22.691 8.60085 22.6778C8.57596 22.6621 8.54852 22.6507 8.51976 22.6444C8.48897 22.641 8.44909 22.656 8.40012 22.6895C8.3514 22.7227 8.29358 22.7693 8.22667 22.8295L7.27176 23.6898L7.21576 23.628L7.73249 22.0556L7.05976 22.6615C6.98437 22.7293 6.9297 22.7851 6.89576 22.8287C6.86182 22.8726 6.84315 22.9098 6.83976 22.9404C6.83637 22.9634 6.84413 22.9972 6.86303 23.0418C6.88194 23.0864 6.89613 23.1146 6.90558 23.1262L6.84013 23.1847L6.4674 22.7709L6.53285 22.7124C6.54546 22.724 6.57079 22.7401 6.60885 22.7607C6.63318 22.7764 6.66038 22.787 6.68885 22.792C6.72819 22.7907 6.76627 22.7778 6.79831 22.7549C6.83903 22.7295 6.90206 22.6783 6.9874 22.6015L7.62994 22.0229C7.65806 21.9975 7.68279 21.9683 7.70413 21.9353C7.72329 21.9087 7.73622 21.8781 7.74194 21.8458C7.74645 21.8068 7.74299 21.7672 7.73176 21.7295C7.72359 21.6968 7.70981 21.6658 7.69103 21.6378L7.75649 21.5793L8.01576 21.8673L7.53213 23.3306L8.15285 22.7716C8.22873 22.703 8.28364 22.6466 8.31758 22.6022C8.35152 22.5583 8.36873 22.523 8.36922 22.4964C8.36664 22.4632 8.3584 22.4307 8.34485 22.4004C8.33412 22.3702 8.31944 22.3416 8.30122 22.3153L8.36667 22.2567L8.73612 22.6669L8.67103 22.7258ZM8.91903 25.084L8.46849 24.7422L8.52158 24.672C8.56376 24.6989 8.6017 24.7173 8.6354 24.7273C8.66934 24.7375 8.69164 24.7353 8.70231 24.7207C8.71318 24.7054 8.72233 24.689 8.72958 24.6716L8.87758 24.2902L8.49903 24.0029C8.42295 24.0567 8.34895 24.1133 8.27722 24.1727C8.25438 24.1912 8.2323 24.2106 8.21103 24.2309C8.1979 24.2437 8.18574 24.2574 8.17467 24.272C8.15455 24.2982 8.15491 24.3307 8.17576 24.3695C8.19661 24.4083 8.22631 24.4441 8.26485 24.4771L8.21176 24.5469L7.80449 24.2382L7.85794 24.1684C7.87653 24.1788 7.896 24.1876 7.91613 24.1946C7.9377 24.2028 7.96066 24.2069 7.98376 24.2066C8.01445 24.2047 8.04464 24.1979 8.07322 24.1866C8.09916 24.1759 8.13043 24.1573 8.16703 24.1309C8.37743 23.9804 8.58713 23.8289 8.79612 23.6764L9.41431 23.2255L9.4754 23.2713L8.92049 24.7513C8.91005 24.7776 8.90273 24.8051 8.89867 24.8331C8.89683 24.8588 8.89891 24.8847 8.90485 24.9098C8.91053 24.9307 8.91989 24.9504 8.93249 24.968C8.94348 24.9852 8.95682 25.0007 8.97213 25.0142L8.91903 25.084ZM8.91649 24.1815L9.16449 23.5149L8.59212 23.9353L8.91649 24.1815ZM11.5627 24.7036C11.5365 24.6929 11.5092 24.6852 11.4812 24.6807C11.4527 24.6737 11.4232 24.6716 11.3939 24.6746C11.3634 24.6813 11.3303 24.7084 11.2947 24.7556C11.2509 24.8157 11.2108 24.8783 11.1747 24.9433L10.543 26.0629L10.4703 26.0218L10.4601 24.3669L10.015 25.1553C9.96534 25.2438 9.93128 25.3141 9.91285 25.3662C9.89467 25.4186 9.88885 25.4598 9.8954 25.4898C9.89928 25.5129 9.91722 25.5424 9.94922 25.5786C9.9817 25.6149 10.0041 25.6371 10.0165 25.6451L9.97322 25.7215L9.48849 25.4476L9.53176 25.3713C9.54728 25.3781 9.57637 25.3853 9.61903 25.3931C9.6617 25.4004 9.69031 25.4016 9.70485 25.3967C9.74172 25.383 9.77372 25.3587 9.79685 25.3269C9.8274 25.2901 9.87091 25.2216 9.9274 25.1215L10.3521 24.3687C10.3708 24.3353 10.385 24.2996 10.3947 24.2618C10.4043 24.2305 10.4068 24.1975 10.4019 24.1651C10.3938 24.1267 10.378 24.0903 10.3554 24.0582C10.3373 24.0297 10.3144 24.0046 10.2878 23.984L10.331 23.9076L10.6685 24.0982L10.6758 25.6393L11.0863 24.912C11.1365 24.8228 11.1706 24.7519 11.1885 24.6993C11.2067 24.6462 11.2118 24.6072 11.2038 24.5822C11.1908 24.5517 11.1727 24.5237 11.1503 24.4993C11.1306 24.4741 11.1076 24.4516 11.0819 24.4324L11.1252 24.356L11.6059 24.6273L11.5627 24.7036ZM14.8623 25.5735C14.8357 25.573 14.8091 25.5754 14.783 25.5807C14.7517 25.5851 14.7216 25.5963 14.695 25.6135C14.672 25.63 14.6533 25.6675 14.639 25.7262C14.6252 25.7841 14.6143 25.8559 14.6063 25.9415L14.5329 26.7015C14.5269 26.7881 14.5027 26.8725 14.4619 26.9491C14.4277 27.0132 14.3801 27.0693 14.3223 27.1135C14.2276 27.1844 14.11 27.2178 13.9921 27.2073C13.9176 27.2013 13.845 27.18 13.779 27.1447C13.7211 27.1134 13.6703 27.0703 13.6299 27.0182C13.5918 26.9676 13.5642 26.9098 13.5489 26.8484C13.5336 26.7855 13.5289 26.7205 13.535 26.656L13.6343 25.6229C13.6369 25.5986 13.6355 25.574 13.6299 25.5502C13.6228 25.5275 13.6093 25.5073 13.591 25.492C13.5739 25.4775 13.5541 25.4663 13.5329 25.4589C13.5136 25.4508 13.4936 25.4443 13.4732 25.4396L13.4816 25.3524L14.0441 25.4066L14.0358 25.4938C14.013 25.4933 13.9902 25.4949 13.9678 25.4986C13.9471 25.501 13.9266 25.5053 13.9067 25.5113C13.8959 25.5149 13.886 25.5207 13.8777 25.5284C13.8693 25.5362 13.8627 25.5455 13.8583 25.556C13.8486 25.5797 13.8424 25.6047 13.8401 25.6302L13.7474 26.596C13.7432 26.6452 13.7423 26.6947 13.7449 26.744C13.7482 26.7964 13.7594 26.8457 13.7783 26.892C13.7987 26.9388 13.8297 26.9801 13.8689 27.0127C13.9086 27.0455 13.9656 27.0653 14.0398 27.0724C14.1009 27.0809 14.1632 27.0719 14.2194 27.0466C14.2684 27.023 14.3108 26.9877 14.3427 26.9436C14.3727 26.9022 14.3955 26.8576 14.411 26.8098C14.4266 26.7628 14.4366 26.7146 14.4412 26.6651L14.5103 25.9487C14.5188 25.8573 14.5209 25.7822 14.5165 25.7233C14.5116 25.6644 14.5004 25.625 14.4827 25.6051C14.4589 25.5796 14.4293 25.5601 14.3965 25.5484C14.3687 25.5363 14.3399 25.5269 14.3103 25.5204L14.3187 25.4331L14.871 25.4862L14.8623 25.5735ZM16.6947 25.6287C16.6665 25.6318 16.6388 25.6381 16.6121 25.6476C16.5835 25.6553 16.5564 25.6678 16.5321 25.6847C16.5091 25.7053 16.4933 25.7449 16.4849 25.8033C16.4761 25.8615 16.4715 25.9356 16.471 26.0258L16.4598 27.3113L16.3761 27.3106L15.5663 25.8669L15.5583 26.7724C15.5562 26.8507 15.5605 26.929 15.571 27.0066C15.5807 27.0611 15.5955 27.0999 15.6154 27.1229C15.6299 27.1411 15.66 27.1583 15.7056 27.1746C15.7516 27.1908 15.7819 27.1993 15.7965 27.2L15.7958 27.288L15.239 27.2833L15.2398 27.1953C15.2696 27.1906 15.2988 27.1828 15.327 27.172C15.3549 27.1645 15.381 27.1515 15.4038 27.1338C15.4294 27.1041 15.4457 27.0674 15.4507 27.0284C15.4594 26.9811 15.4642 26.9 15.4652 26.7851L15.4729 25.9207C15.4731 25.8822 15.4682 25.8438 15.4583 25.8066C15.4517 25.7746 15.4381 25.7445 15.4183 25.7186C15.3925 25.6889 15.361 25.6648 15.3256 25.6476C15.2961 25.6314 15.2639 25.6205 15.2307 25.6153L15.2314 25.5276L15.619 25.5313L16.3707 26.8764L16.3779 26.0411C16.3789 25.9393 16.3746 25.8607 16.3649 25.8055C16.3552 25.7504 16.3407 25.7138 16.3216 25.6956C16.2954 25.6751 16.2659 25.6593 16.2343 25.6487C16.2049 25.6362 16.174 25.6277 16.1423 25.6233L16.143 25.536L16.6958 25.5407L16.6947 25.6287ZM17.8936 27.1909L17.2841 27.2396L17.2769 27.1524C17.2941 27.1487 17.3188 27.1441 17.351 27.1386C17.3745 27.1355 17.3974 27.1286 17.4187 27.1182C17.4371 27.107 17.4518 27.0905 17.4609 27.0709C17.4692 27.0458 17.4719 27.0191 17.4689 26.9927L17.3678 25.7251C17.3665 25.7006 17.3611 25.6765 17.3518 25.6538C17.3433 25.6352 17.3255 25.6201 17.2983 25.6087C17.2514 25.5906 17.202 25.58 17.1518 25.5775L17.1445 25.4898L17.7547 25.4411L17.7616 25.5287C17.7131 25.535 17.6659 25.5487 17.6216 25.5695C17.6109 25.5745 17.6014 25.5817 17.5936 25.5907C17.5859 25.5996 17.5802 25.6101 17.5769 25.6215C17.5704 25.6459 17.5681 25.6712 17.5703 25.6964L17.671 26.9629C17.6727 26.9876 17.6794 27.0118 17.6907 27.0338C17.7016 27.0542 17.7185 27.0697 17.7416 27.0804C17.7556 27.086 17.7781 27.0914 17.8089 27.0967C17.8346 27.1019 17.8608 27.1042 17.887 27.1036L17.8936 27.1909ZM19.4452 25.0495C19.4262 25.0575 19.4085 25.0681 19.3925 25.0811C19.3721 25.0962 19.3549 25.1154 19.342 25.1373C19.3292 25.1592 19.3208 25.1835 19.3176 25.2087C19.3135 25.2434 19.3111 25.2782 19.3103 25.3131C19.3103 25.4506 19.3126 25.6647 19.3172 25.9556C19.3216 26.2458 19.3272 26.5481 19.3339 26.8626L19.2587 26.8869C18.9629 26.4488 18.6664 26.0113 18.3692 25.5742C18.3412 25.5326 18.3009 25.5008 18.2539 25.4833C18.2334 25.4753 18.2116 25.4711 18.1896 25.4709C18.1697 25.4705 18.1498 25.4725 18.1303 25.4767L18.103 25.3931L18.6372 25.2196L18.6645 25.3033C18.6264 25.3178 18.5899 25.3361 18.5554 25.3578C18.5263 25.3767 18.5155 25.3972 18.523 25.4193C18.5311 25.4385 18.5409 25.457 18.5521 25.4746L18.7834 25.8149L19.2394 26.4876C19.2365 26.15 19.2301 25.8124 19.2201 25.4749C19.2197 25.4216 19.2153 25.3683 19.207 25.3156C19.2026 25.2924 19.197 25.2693 19.1903 25.2466C19.1877 25.2381 19.1834 25.2302 19.1776 25.2235C19.1719 25.2167 19.1648 25.2112 19.1569 25.2073C19.138 25.199 19.1178 25.1939 19.0972 25.1924C19.0749 25.191 19.0525 25.1918 19.0303 25.1946C19.0085 25.1972 18.9867 25.2009 18.9649 25.2055L18.9372 25.1218L19.4179 24.9658L19.4452 25.0495ZM21.3794 25.4386L21.5896 25.912L20.5834 26.4196L20.5434 26.3411C20.5601 26.3309 20.5813 26.3164 20.607 26.2975C20.6249 26.2853 20.6412 26.2709 20.6554 26.2546C20.6669 26.2358 20.6725 26.214 20.6714 26.192C20.6681 26.1666 20.6603 26.142 20.6485 26.1193L20.0798 24.9927C20.0693 24.9705 20.0552 24.9502 20.0379 24.9327C20.0209 24.9169 19.9987 24.9076 19.9754 24.9066C19.9503 24.9054 19.9251 24.9074 19.9005 24.9127C19.8772 24.9166 19.8543 24.9227 19.8321 24.9309L19.7925 24.8524L20.7307 24.3793L20.9212 24.7567L20.8569 24.7895C20.8105 24.7337 20.7552 24.686 20.6932 24.6484C20.6234 24.6045 20.5701 24.5881 20.5332 24.5993C20.5105 24.6067 20.4882 24.6152 20.4663 24.6247C20.4411 24.6356 20.4129 24.649 20.3816 24.6647L20.191 24.7607L20.5052 25.3836L20.6423 25.3146C20.6859 25.2927 20.7152 25.2713 20.7299 25.2502C20.7458 25.2263 20.755 25.1985 20.7565 25.1698C20.7576 25.1355 20.7538 25.1012 20.7452 25.068C20.737 25.0306 20.7258 24.9939 20.7118 24.9582L20.7758 24.9255L21.0849 25.5389L21.0209 25.5709C20.9989 25.5345 20.9739 25.5001 20.9459 25.468C20.9245 25.4413 20.8994 25.4178 20.8714 25.3982C20.8455 25.3802 20.8145 25.3712 20.783 25.3724C20.7496 25.3773 20.7172 25.388 20.6874 25.404L20.5507 25.4731L20.7878 25.9436C20.812 25.9909 20.8333 26.0268 20.8518 26.0513C20.8709 26.0758 20.8913 26.0914 20.9129 26.0982C20.9347 26.1045 20.9595 26.1033 20.9874 26.0946C21.0153 26.0853 21.0527 26.069 21.0998 26.0455L21.1739 26.008C21.1999 25.995 21.225 25.9804 21.2492 25.9644C21.2696 25.9506 21.2893 25.9339 21.3085 25.9146C21.3252 25.8996 21.3368 25.88 21.3419 25.8582C21.3499 25.8095 21.3503 25.7421 21.343 25.656C21.3386 25.5933 21.3301 25.531 21.3176 25.4695L21.3794 25.4386ZM23.4299 24.7429L23.1365 24.9607C22.9733 24.8769 22.8299 24.8066 22.7063 24.7498C22.5771 24.6902 22.4466 24.6332 22.315 24.5789L22.2038 24.6618L22.5354 25.1091C22.5505 25.1299 22.5686 25.1483 22.5892 25.1636C22.6076 25.1772 22.6296 25.1817 22.655 25.1771C22.6754 25.1723 22.695 25.1646 22.7132 25.1542C22.7349 25.1431 22.756 25.131 22.7765 25.1178L22.8289 25.1884L22.3678 25.5306L22.3154 25.46C22.3268 25.4496 22.3429 25.434 22.3638 25.4131C22.3796 25.3991 22.3929 25.3825 22.403 25.364C22.4121 25.3446 22.4141 25.3226 22.4085 25.3018C22.4009 25.276 22.3885 25.2519 22.3721 25.2306L21.6158 24.2109C21.6008 24.1897 21.5826 24.171 21.5619 24.1553C21.5526 24.1482 21.5419 24.1433 21.5304 24.1408C21.519 24.1384 21.5072 24.1385 21.4958 24.1411C21.4746 24.1463 21.4539 24.1533 21.4339 24.1622C21.4132 24.1701 21.3933 24.1798 21.3743 24.1913L21.3219 24.1207L21.8256 23.7473C21.8716 23.7133 21.9194 23.6874 21.9689 23.6695C22.0183 23.6515 22.0696 23.644 22.1227 23.6469C22.1766 23.6505 22.2289 23.6667 22.2754 23.6942C22.3263 23.723 22.3742 23.7675 22.419 23.8276C22.459 23.8822 22.4881 23.935 22.5063 23.9862C22.5245 24.0373 22.5324 24.0874 22.5299 24.1364C22.5278 24.1828 22.5182 24.2286 22.5016 24.272C22.4837 24.3183 22.4612 24.3627 22.4343 24.4044C22.5565 24.4567 22.6588 24.5012 22.7412 24.5378C22.8232 24.5742 22.9235 24.6182 23.0423 24.6698C23.0942 24.6931 23.1364 24.7074 23.1689 24.7127C23.2009 24.7178 23.2303 24.7198 23.2572 24.7186C23.2795 24.7162 23.3014 24.7105 23.3219 24.7015C23.3452 24.691 23.3638 24.6813 23.3776 24.6724L23.4299 24.7429ZM22.2459 23.9913C22.1829 23.9059 22.1137 23.8523 22.0383 23.8302C22.0014 23.8194 21.9623 23.8178 21.9246 23.8255C21.8869 23.8333 21.8517 23.8501 21.8219 23.8746L21.6914 23.9713L22.1405 24.5764L22.2409 24.5018C22.2754 24.4768 22.3036 24.4439 22.3229 24.4058C22.3423 24.3677 22.3523 24.3256 22.3521 24.2829C22.3558 24.1891 22.3204 24.0919 22.2459 23.9913ZM24.0019 23.2444C24.0509 23.2553 24.097 23.2744 24.1401 23.3018C24.1838 23.3285 24.2274 23.3661 24.271 23.4146C24.3753 23.5292 24.4285 23.6536 24.4307 23.7876C24.4332 23.8504 24.4217 23.913 24.397 23.9707C24.3723 24.0285 24.3349 24.08 24.2878 24.1215C24.2429 24.1622 24.1899 24.1941 24.1289 24.2171C24.0724 24.2385 24.0133 24.2519 23.9532 24.2571L23.9838 24.3516L23.9267 24.4033L23.5121 23.9673L23.5699 23.9149C23.6266 23.9554 23.6854 23.9925 23.7463 24.0262C23.8026 24.056 23.8611 24.0783 23.9219 24.0931C23.9792 24.1064 24.0339 24.1091 24.0863 24.1011C24.1401 24.0916 24.1899 24.0666 24.2296 24.0291C24.2591 24.0028 24.283 23.9708 24.2998 23.9349C24.3139 23.9035 24.3197 23.8689 24.3165 23.8346C24.3125 23.7991 24.302 23.7647 24.2856 23.7331C24.2656 23.6954 24.2407 23.6605 24.2114 23.6295C24.1657 23.5788 24.1088 23.5396 24.0452 23.5149C23.9833 23.491 23.9153 23.4877 23.8514 23.5055C23.8066 23.5176 23.7554 23.5319 23.6979 23.5484C23.6479 23.5635 23.5971 23.5765 23.5459 23.5873C23.4632 23.6061 23.3769 23.6029 23.2958 23.5778C23.2158 23.5531 23.1369 23.4977 23.059 23.4116C23.0157 23.365 22.9809 23.3111 22.9561 23.2524C22.9335 23.1966 22.9209 23.1373 22.919 23.0771C22.9173 23.0215 22.9272 22.9661 22.9481 22.9146C22.9684 22.8638 22.9999 22.8184 23.0401 22.7815C23.0864 22.7393 23.1361 22.7107 23.1892 22.6956C23.2426 22.6809 23.2954 22.6719 23.3478 22.6687L23.3201 22.5804L23.3769 22.5287L23.7747 22.9546L23.7176 23.0066C23.6642 22.9681 23.6095 22.9315 23.5536 22.8967C23.5028 22.8647 23.4482 22.839 23.391 22.8204C23.3424 22.8039 23.2909 22.798 23.2398 22.8029C23.1884 22.81 23.1406 22.8333 23.1034 22.8695C23.0813 22.8895 23.0641 22.9144 23.0531 22.9421C23.0421 22.9698 23.0375 22.9997 23.0398 23.0295C23.0422 23.0967 23.0694 23.1607 23.1161 23.2091C23.167 23.2653 23.2195 23.3026 23.2736 23.3207C23.3274 23.3389 23.3844 23.3424 23.4445 23.3313C23.4988 23.3216 23.5497 23.3093 23.5972 23.2946C23.6447 23.2798 23.692 23.2669 23.739 23.256C23.7817 23.2463 23.8252 23.2396 23.8696 23.236C23.9142 23.2321 23.9583 23.2349 24.0019 23.2444ZM25.5274 22.7142L25.1419 23.1891L25.0736 23.1338L25.115 23.0709C25.129 23.0518 25.1399 23.0306 25.147 23.008C25.1516 22.9869 25.1499 22.9649 25.1419 22.9447C25.1295 22.9214 25.1121 22.901 25.091 22.8851L24.1034 22.0836C24.0847 22.0677 24.0634 22.055 24.0405 22.0462C24.0211 22.0394 23.9981 22.042 23.9714 22.0538C23.9258 22.0752 23.884 22.1037 23.8474 22.1382L23.779 22.0829L24.1645 21.608L24.2325 21.6633C24.2186 21.6827 24.2062 21.7031 24.1954 21.7244C24.1833 21.7461 24.1734 21.769 24.1659 21.7927C24.1622 21.8039 24.1608 21.8157 24.162 21.8274C24.1631 21.8392 24.1667 21.8505 24.1725 21.8607C24.1846 21.8813 24.2012 21.9003 24.2223 21.9175L25.2089 22.7182C25.2278 22.7341 25.2499 22.746 25.2736 22.7531C25.2966 22.759 25.3208 22.7572 25.3427 22.748C25.3632 22.7374 25.3827 22.7249 25.4009 22.7106C25.422 22.6955 25.4415 22.6782 25.459 22.6589L25.5274 22.7142ZM25.5681 20.4913L25.5318 20.5462C25.4975 20.5326 25.4622 20.5217 25.4263 20.5135C25.3853 20.5038 25.3438 20.4965 25.3019 20.4916C25.2629 20.4866 25.2234 20.4855 25.1841 20.4884C25.1478 20.4915 25.1223 20.5009 25.1078 20.5164C25.0939 20.5309 25.0781 20.5502 25.0601 20.5742C25.0422 20.5982 25.0261 20.6209 25.0118 20.6422L24.9809 20.6884L26.1507 21.4651C26.1735 21.4804 26.1969 21.4906 26.2209 21.4956C26.2444 21.5008 26.2689 21.4972 26.2899 21.4855C26.3013 21.4794 26.3213 21.4636 26.3499 21.4382C26.3726 21.42 26.393 21.3991 26.4107 21.376L26.4838 21.4247L26.1292 21.9586L26.0558 21.9098C26.0642 21.8943 26.0767 21.8698 26.0932 21.8364C26.1057 21.8134 26.1145 21.7886 26.1194 21.7629C26.1219 21.7405 26.1175 21.7179 26.1067 21.6982C26.0915 21.6749 26.0713 21.6554 26.0474 21.6411L24.8685 20.8582L24.8376 20.9044C24.8267 20.9211 24.8136 20.942 24.7983 20.9669C24.7837 20.991 24.7704 21.0159 24.7587 21.0415C24.7499 21.0609 24.7514 21.088 24.763 21.1229C24.7752 21.1578 24.7913 21.1936 24.8114 21.2302C24.8315 21.2666 24.855 21.3024 24.8819 21.3378C24.9086 21.373 24.9316 21.4006 24.951 21.4207L24.9139 21.4764L24.5169 21.2127L25.1714 20.228L25.5681 20.4913ZM25.9179 18.6982C25.9139 18.7161 25.9125 18.7345 25.9139 18.7527C25.9147 18.7782 25.9177 18.7976 25.923 18.8109C25.9322 18.8415 25.9401 18.8629 25.9467 18.8753C25.953 18.8874 25.9725 18.9138 26.0052 18.9546C26.0707 19.0346 26.1387 19.1115 26.2092 19.1855C26.28 19.2596 26.3701 19.3529 26.4794 19.4651C26.5194 19.5068 26.553 19.5371 26.5801 19.556C26.607 19.5752 26.6489 19.5961 26.7056 19.6189L27.0165 19.7447C27.0441 19.7556 27.0697 19.761 27.0932 19.7607C27.1174 19.7602 27.1406 19.7516 27.1594 19.7364C27.1708 19.7267 27.1873 19.7075 27.2089 19.6789C27.2267 19.657 27.242 19.6331 27.2543 19.6076L27.3358 19.6404L27.0979 20.2295L27.0165 20.1967L27.0383 20.1186C27.0457 20.094 27.0494 20.0685 27.0492 20.0429C27.0473 20.0191 27.037 19.9967 27.0201 19.9796C27 19.9617 26.9767 19.9476 26.9514 19.9382L26.5554 19.7782C26.5315 19.7714 26.5068 19.768 26.4819 19.7684C26.4401 19.7668 26.3983 19.7661 26.3565 19.7662C26.1412 19.7654 25.9259 19.7678 25.7107 19.7735C25.6705 19.7742 25.6305 19.7782 25.591 19.7855C25.5634 19.7916 25.5365 19.801 25.511 19.8135C25.4933 19.8243 25.4776 19.8381 25.4645 19.8542C25.4521 19.8696 25.4411 19.886 25.4314 19.9033L25.3499 19.8706L25.5667 19.3335L25.6481 19.3662C25.6251 19.4273 25.6132 19.4721 25.6125 19.5007C25.6118 19.5293 25.6198 19.5469 25.6365 19.5535C25.645 19.5561 25.6538 19.5577 25.6627 19.5582L25.7121 19.5607H25.8779C25.957 19.5603 26.0364 19.559 26.1161 19.5571L26.4263 19.5506C26.2702 19.3796 26.1479 19.248 26.0594 19.1556C25.9709 19.0633 25.9159 19.0126 25.8943 19.0036C25.879 18.9969 25.8617 18.9962 25.8459 19.0018C25.8301 19.0084 25.816 19.0186 25.8049 19.0316C25.7913 19.0472 25.7797 19.0643 25.7703 19.0826L25.7412 19.136L25.6598 19.1033L25.8365 18.6655L25.9179 18.6982ZM12.1369 29.3622C12.4859 29.3501 12.7022 29.1715 12.7856 28.8266C12.8302 28.5337 12.7458 28.357 12.5325 28.2964C12.3337 28.2714 12.2059 28.3691 12.1492 28.5895C12.125 28.7938 12.1953 28.921 12.3601 28.9709C12.4127 28.9826 12.4692 28.9739 12.5296 28.9451C12.4435 29.1638 12.3033 29.2845 12.1089 29.3073L12.1369 29.3622ZM12.3569 28.6C12.3859 28.4158 12.4409 28.3347 12.5216 28.3567C12.611 28.3761 12.6372 28.489 12.6001 28.6953C12.5881 28.7556 12.5731 28.8154 12.555 28.8742C12.4998 28.8992 12.4537 28.9076 12.4169 28.8996C12.3349 28.8866 12.3149 28.7867 12.3569 28.6ZM13.2972 29.6287L13.4587 29.6491L13.9081 28.6666L13.9143 28.5986L13.2754 28.5189L13.2245 28.8153L13.2801 28.8222C13.2927 28.7735 13.3078 28.7456 13.3252 28.7386C13.3388 28.7264 13.3703 28.7235 13.4198 28.7298L13.7361 28.7691L13.2972 29.6287ZM14.9099 28.8029C14.5567 28.8141 14.3393 28.9993 14.2576 29.3586C14.2188 29.6436 14.3044 29.8137 14.5143 29.8687C14.7114 29.9027 14.8362 29.809 14.8889 29.5876C14.9189 29.3753 14.8513 29.2464 14.6859 29.2011C14.6262 29.1888 14.5641 29.1974 14.5099 29.2255C14.5853 29.0187 14.7256 28.898 14.9307 28.8633L14.9099 28.8029ZM14.6838 29.5636C14.6583 29.7537 14.603 29.8371 14.5179 29.8138C14.4326 29.7949 14.4092 29.678 14.4478 29.4629C14.4564 29.4183 14.4667 29.374 14.4787 29.3302L14.4834 29.3033C14.5032 29.2888 14.5257 29.2785 14.5495 29.2729C14.5734 29.2674 14.5982 29.2667 14.6223 29.2709C14.7042 29.284 14.7245 29.3816 14.6838 29.5636ZM15.2125 29.6909L15.211 29.5513L15.4947 29.5487L15.4958 29.6884L15.2125 29.6909ZM16.2107 28.8466L16.1234 28.8415C16.0328 28.9426 15.9229 29.0245 15.8001 29.0826L15.8241 29.132C15.8901 29.1139 15.9536 29.0878 16.0132 29.0542L15.9979 29.8186C15.997 29.8593 15.9777 29.881 15.9401 29.8836L15.8405 29.8778L15.8394 29.9393L16.3507 29.9684L16.3521 29.9069L16.2459 29.9011C16.2084 29.8989 16.1902 29.8727 16.1914 29.8226L16.2107 28.8466ZM16.8638 29.9629C17.2097 29.9144 17.4063 29.7143 17.4536 29.3626C17.4674 29.0668 17.3651 28.8999 17.1467 28.8618C16.9467 28.8575 16.8298 28.9679 16.7961 29.1931C16.7932 29.3989 16.8762 29.5181 17.0452 29.5506C17.099 29.5566 17.1543 29.5422 17.211 29.5073C17.1482 29.7337 17.0213 29.8683 16.8303 29.9109L16.8641 29.9629H16.8638ZM17.0038 29.1822C17.0135 28.9955 17.0595 28.9091 17.1419 28.9229C17.2333 28.9331 17.2712 29.0427 17.2554 29.2516C17.2515 29.3013 17.2428 29.3622 17.2292 29.4342C17.1766 29.4647 17.1318 29.478 17.0947 29.4738C17.0115 29.469 16.9812 29.3718 17.0038 29.1822ZM17.9394 29.7818L18.5576 29.6909L18.5314 29.3778L18.4819 29.3851C18.4902 29.4758 18.4589 29.524 18.3881 29.5298L18.0914 29.5735C18.1292 29.5034 18.1852 29.417 18.2594 29.3142C18.3862 29.153 18.4347 29.0148 18.4049 28.8996C18.3576 28.7135 18.2462 28.6264 18.0707 28.6386C17.8952 28.6735 17.8108 28.8009 17.8176 29.0207L17.8794 29.0116C17.8818 28.887 17.9296 28.8132 18.0227 28.7902C18.1264 28.7795 18.1936 28.8455 18.2241 28.988C18.2724 29.0869 18.193 29.2987 17.9859 29.6233C17.9649 29.655 17.9454 29.6877 17.9278 29.7215L17.9394 29.7818ZM19.4336 28.3473C19.0971 28.4556 18.9394 28.6937 18.9605 29.0615C19.0019 29.3463 19.1313 29.4861 19.3485 29.4807C19.5473 29.4589 19.6412 29.3343 19.6303 29.1069C19.6002 28.8946 19.4996 28.7895 19.3285 28.7916C19.2678 28.7963 19.2105 28.8218 19.1663 28.8636C19.1813 28.644 19.2827 28.4892 19.4703 28.3993L19.4336 28.3473ZM19.4267 29.1404C19.4548 29.3304 19.4247 29.426 19.3365 29.4269C19.2492 29.4325 19.1946 29.3267 19.1725 29.1095C19.1679 29.0643 19.1655 29.0189 19.1652 28.9735L19.1623 28.9462C19.1773 28.9268 19.196 28.9106 19.2174 28.8986C19.2387 28.8866 19.2623 28.879 19.2867 28.8764C19.3693 28.8664 19.416 28.9544 19.4267 29.1404ZM25.9547 6.5211C25.9532 6.52255 25.9547 6.99601 25.5925 7.19528C25.5925 7.19528 26.1107 7.3371 26.2598 7.39019C26.2598 7.39019 26.4343 7.37019 26.1529 7.10946C26.1529 7.10946 26.0296 7.0931 25.9899 7.02656C25.9899 7.02656 26.0663 7.03601 26.107 7.01492C26.107 7.01492 26.0216 6.85383 26.1565 6.95674L26.2914 7.09856C26.2914 7.09856 26.411 7.07019 26.9012 7.0731C26.9012 7.0731 27.1827 7.13601 27.2823 6.89165C27.2823 6.89165 27.3641 7.24546 26.8376 7.1811C26.8376 7.1811 26.5776 7.11892 26.3885 7.1571C26.3885 7.1571 26.5318 7.38037 26.4503 7.45347C26.4503 7.45347 27.2827 7.79346 27.1641 8.01165C27.1641 8.01165 26.7074 8.09528 25.9954 8.07456C25.9954 8.07456 26.1609 8.3691 25.8256 8.36801C25.8256 8.36801 25.0845 8.09855 25.0318 8.11201C25.0318 8.11201 24.9747 8.12037 24.891 8.17965C24.891 8.17965 25.4569 8.58801 25.2565 8.76874C25.2565 8.76874 24.9005 8.67892 24.731 8.49783C24.731 8.49783 25.3183 8.7571 25.1012 8.45856C25.1012 8.45856 24.8459 8.23492 24.7899 8.27419C24.7899 8.27419 24.0969 9.06256 23.9161 8.94474C23.9161 8.94474 23.647 8.53274 23.6914 8.28837C23.6914 8.28837 23.7885 8.77346 24.071 8.78837C24.071 8.78837 24.5605 8.44365 24.7249 8.2411C24.7249 8.2411 23.9692 7.83128 23.9078 7.84292C23.9078 7.84292 23.6547 7.52292 23.7638 7.54874C23.7638 7.54874 24.6867 7.99856 24.8499 8.12146C24.8499 8.12146 24.8947 8.02692 25.3598 8.10256C25.3598 8.10256 26.0652 8.18365 25.7259 8.05856C25.7259 8.05856 25.0096 7.68474 24.8412 7.45492C24.8412 7.45492 25.6819 7.87892 25.7525 8.00874C25.7525 8.00874 25.887 7.96037 25.8525 7.90365C25.8525 7.90365 25.9027 7.90328 25.9307 7.96437C25.9307 7.96437 27.1609 8.00801 26.9558 7.83965C26.9558 7.83965 26.387 7.4811 26.2649 7.50365L25.955 7.5131L25.9009 7.6611L25.8579 7.50583C25.8579 7.50583 25.5136 7.48765 25.4605 7.42692C25.4605 7.42692 26.2241 7.47419 25.8979 7.34474C25.8979 7.34474 25.3118 7.17237 25.1379 7.29492C25.1379 7.29492 25.1518 7.11128 25.3081 6.94946C25.3081 6.94946 25.4049 6.86946 25.479 6.76474C25.479 6.76474 25.4587 7.04001 25.3172 7.15092L25.4845 7.17819C25.4845 7.17819 25.7958 6.95347 25.9416 6.48583L25.9518 6.50728L25.9547 6.5211Z" fill="var(--fill-0, #FF0000)"/>
<path id="Vector_3" fill-rule="evenodd" clip-rule="evenodd" d="M26.3261 7.63906C26.3261 7.63906 26.2799 7.86379 25.9163 7.82415L25.7228 7.75033C25.7228 7.75033 26.0799 7.79797 26.3217 7.62415L26.3239 7.63215L26.3261 7.63906ZM19.6799 2.73506C19.6799 2.73506 20.0006 2.2587 19.9003 2.81906C19.9003 2.81906 19.4723 3.68197 19.3075 3.83615C19.3075 3.83615 19.705 3.79761 19.9083 3.67106L19.9243 3.3947C19.9243 3.3947 20.0334 3.70597 19.961 3.80997C19.961 3.80997 19.5188 4.02888 19.177 4.04961C19.177 4.04961 18.5945 4.82706 18.0341 4.82306C18.0341 4.82306 18.7497 4.5707 18.8774 4.0667L18.5421 4.06997C18.5421 4.06997 18.3905 4.0187 18.5254 3.96452L19.0905 3.87142L19.6541 2.82379L19.6799 2.73506Z" fill="var(--fill-0, #FF0000)"/>
<path id="Vector_4" fill-rule="evenodd" clip-rule="evenodd" d="M19.1747 4.23157C19.1762 4.22867 19.6529 5.13921 20.0947 5.26794C20.0947 5.26794 20.1747 5.3963 19.8613 5.34139C19.8613 5.34139 19.5947 5.31485 19.5216 5.07448C19.5216 5.07448 19.2871 4.45121 19.166 4.28976L19.1482 4.25412C19.1482 4.25412 19.1736 4.23485 19.1747 4.23157ZM4.09945 7.89485C4.09473 7.8923 4.83763 8.19194 4.88127 8.4443C4.88127 8.4443 4.87254 8.1963 4.63073 7.93958C4.63073 7.93958 4.44491 7.82285 4.13 7.87994L4.11291 7.88467C4.11291 7.88467 4.10418 7.89739 4.09945 7.89485ZM6.63254 9.01085C6.63254 9.01085 6.66236 9.19994 6.44927 9.08939C6.44927 9.08939 6.38273 9.05594 6.44964 8.97012C6.44964 8.97012 6.15509 8.26285 6.38782 8.25957C6.38782 8.25957 6.54418 8.33485 6.64164 8.4563C6.64164 8.4563 6.71436 8.41194 6.65182 8.34467C6.65182 8.34467 6.50273 7.93448 6.35873 7.81376C6.35873 7.81376 6.36964 7.59194 6.49873 7.6923C6.49873 7.6923 6.70782 7.94685 6.80345 8.02103C6.80345 8.02103 7.77182 8.83776 7.90054 9.19558C7.90054 9.19558 7.982 9.39667 7.50745 9.26721C7.50745 9.26721 7.83182 9.22467 7.62527 9.03667C7.62527 9.03667 6.73 8.04648 6.58891 8.01085C6.58891 8.01085 6.89145 8.68721 6.99545 8.86939C6.99545 8.86939 6.898 9.00539 6.76855 8.89558C6.76855 8.89558 6.35145 8.13921 6.35873 8.49448C6.35873 8.49448 6.51945 8.83085 6.594 8.96212L6.61436 8.99194L6.63254 9.01085Z" fill="var(--fill-0, #FF0000)"/>
<path id="Vector_5" fill-rule="evenodd" clip-rule="evenodd" d="M6.00267 7.50888C6.00267 7.50888 6.21213 7.0987 6.1314 6.79034C6.1314 6.79034 6.12922 6.60852 6.24885 6.71798C6.24885 6.71798 6.75903 7.40197 7.92885 8.15288C7.92885 8.15288 7.53322 8.41361 7.45831 8.39725C7.45831 8.39725 8.11431 8.2867 8.26631 8.22597C8.26631 8.22597 8.31213 8.16707 8.10631 8.05979C8.10631 8.05979 6.59067 6.99797 6.42267 6.60452C6.42267 6.60452 6.21176 6.18816 6.02703 6.53907C6.02703 6.53907 6.02449 7.39361 6.00267 7.4507L5.9834 7.50888H6.00267Z" fill="var(--fill-0, #FF0000)"/>
<path id="Vector_6" fill-rule="evenodd" clip-rule="evenodd" d="M6.16876 7.57597C6.16876 7.57597 6.49712 7.32652 6.74185 7.55997L6.85603 7.82615C6.85603 7.82615 7.01749 7.92979 7.1964 7.9087C7.1964 7.9087 7.12258 8.05488 6.93167 7.9887C6.93167 7.9887 6.75058 7.88724 6.71276 7.7407C6.71276 7.7407 6.59567 7.45052 6.14912 7.59306L6.16258 7.58106L6.16876 7.57597ZM5.60512 9.37597C5.60512 9.37597 6.56803 9.93052 6.21821 9.50106C6.21821 9.50106 5.87567 8.98251 5.73567 8.93706C5.73567 8.93706 5.64621 8.96215 5.60658 8.74179L5.61349 8.01088C5.61349 8.01088 4.74221 7.12397 5.05967 7.22324L5.15603 7.24579L5.65494 7.20215C5.65494 7.20215 5.75276 7.10979 5.90221 7.27852C5.90221 7.27852 5.79094 8.17924 5.89385 8.47124C5.89385 8.47124 5.90076 8.53124 5.77603 8.69197C5.77603 8.69197 5.74476 8.73197 5.88803 8.84361C5.88803 8.84361 6.26367 9.33815 6.40549 9.53997C6.40549 9.53997 6.92076 10.1705 6.90149 10.284C6.90149 10.284 6.75349 10.4451 6.60803 10.2865C6.60803 10.2865 6.1473 9.88252 6.04258 9.81015L5.66694 9.4447L5.60512 9.37597ZM5.23349 7.29088C5.23349 7.29088 5.50112 7.25379 5.55203 7.2847C5.55203 7.2847 5.69567 7.37197 5.70585 7.42906C5.70585 7.42906 5.70003 7.73524 5.61967 7.6807L5.2564 7.35779L5.23349 7.29088ZM10.7008 4.17997C10.7044 4.19197 10.7648 4.25852 11.4753 3.56252C11.4753 3.56252 11.4008 2.78143 11.5604 2.69961C11.5604 2.69961 11.7429 3.10579 11.6949 3.36143C11.6949 3.36143 11.8477 3.35852 11.9822 3.09961C11.9822 3.09961 11.8833 2.93233 11.9735 3.00615C11.9735 3.00615 12.1437 3.07343 12.0975 3.13415C12.0975 3.13415 11.4702 3.98288 10.992 4.16397L10.6622 4.21306C10.6622 4.21306 10.6968 4.16761 10.7008 4.17997ZM11.1611 5.47815C11.1611 5.47815 11.1626 5.6287 11.0364 5.42615C11.0364 5.42615 10.9462 5.15088 11.1397 4.55342C11.1397 4.55342 11.5797 3.86724 12.1844 3.48324C12.1844 3.48324 12.3058 3.30979 12.4444 3.37197C12.4444 3.37197 12.4644 3.3527 12.5611 3.72833C12.5611 3.72833 12.8073 4.78106 13.0298 5.15924C13.0298 5.15924 13.1088 5.64215 12.6077 5.35815C12.6077 5.35815 12.984 5.42179 12.896 5.15342C12.896 5.15342 12.4426 3.98943 12.4364 3.64797C12.4364 3.64797 12.4051 3.4727 12.1593 3.60724C12.1593 3.60724 11.3684 4.22833 11.4138 4.44797C11.4138 4.44797 11.6069 4.65524 11.7738 4.21924C11.7738 4.21924 11.9571 4.05488 11.9618 4.23052C11.9618 4.23052 11.7411 4.56252 11.8909 4.61706C11.8909 4.61706 12.2218 4.64252 12.1178 4.9687L12.2026 5.4087C12.2026 5.4087 12.1662 5.47779 12.0335 5.09342C12.0335 5.09342 11.8298 5.35488 11.7753 5.1887L11.844 4.75597C11.844 4.75597 11.6728 4.69488 11.752 4.55524C11.752 4.55524 11.7029 4.44542 11.7477 4.42142C11.7477 4.42142 11.6044 4.54688 11.6331 4.63488C11.6331 4.63488 11.5622 4.69997 11.4902 4.62033C11.4902 4.62033 11.2858 4.51888 11.1789 4.73597C11.1789 4.73597 11.0022 5.08033 11.1171 5.41161L11.136 5.45161L11.1611 5.47815ZM11.9324 4.74433C11.9324 4.74433 12.0528 4.83052 12.0262 4.97015C12.0262 4.97015 11.8924 5.12506 11.8622 5.03233L11.8924 4.78288L11.9324 4.74433Z" fill="var(--fill-0, #FF0000)"/>
<path id="Vector_7" fill-rule="evenodd" clip-rule="evenodd" d="M16.0074 5.13379C21.4703 5.13379 25.9259 9.58943 25.9259 15.0527C25.9259 20.5152 21.4703 24.9709 16.0074 24.9709C10.5445 24.9709 6.08885 20.5149 6.08885 15.0527C6.08885 9.58943 10.5445 5.13379 16.0074 5.13379ZM7.42558 10.8276C7.42558 10.8276 7.62195 10.4422 7.83431 10.08C7.83431 10.08 10.2616 9.76979 13.2241 8.15743C13.2241 8.15743 13.3812 8.01343 13.5649 8.15743L14.4303 8.89161L15.9899 7.23997L17.5103 8.89161L18.5198 8.11815C18.5198 8.11815 18.6641 8.07888 18.7558 8.15743C18.7558 8.15743 22.7012 10.3203 24.1038 9.95343C24.1038 9.95343 24.5939 10.7843 24.5889 10.8316L22.3867 10.8367L21.1674 10.2942L22.0063 11.9851L21.2347 11.9836L21.2289 13.0643L20.4205 13.0716V13.5011L19.743 13.1811L20.4132 12.132L19.0296 12.1029L19.6921 10.4865L18.1194 11.2436L13.8299 11.2363L12.259 10.4778L12.8663 12.0862H11.5561L12.1758 13.1702L11.5798 13.4683V13.0512L10.7696 13.0629V11.9789H9.93613L10.8296 10.2869L9.57867 10.8232L7.42558 10.8276ZM13.6332 19.6258L18.3812 19.6403L18.4394 20.1792L13.5314 20.2083C13.5314 20.2083 13.6332 19.5818 13.6332 19.6258ZM13.415 20.6014L13.3569 20.9222H18.6001L18.4834 20.6014H13.415ZM13.2256 21.4025V21.7523H18.731L18.7019 21.4025C18.7019 21.4025 13.2256 21.4316 13.2256 21.4025ZM13.1092 22.1745L13.0947 22.5676H18.8474V22.1454L13.1092 22.1745ZM13.211 19.6109L7.57467 19.5818C7.57467 19.5818 8.76849 21.8662 10.9354 23.1662C10.9354 23.1662 12.8809 24.5167 15.5918 24.6174C15.5918 24.6174 18.3332 24.8291 20.863 23.2974C20.863 23.2974 22.9765 22.2356 24.4183 19.588L18.7689 19.6142L19.3849 22.9567L12.5292 22.9305C12.5292 22.9305 13.2238 19.5818 13.211 19.6109ZM19.2612 14.7465L18.755 15.0527L18.7521 19.1705L19.323 19.1302C19.323 19.1302 19.2907 14.7287 19.2612 14.7465ZM20.5896 17.5098H21.5234V15.9862H20.5896V17.5098ZM18.3372 15.3669L17.0652 15.38L17.0525 18.3425L18.3372 19.0109V15.3669ZM15.387 15.0262L16.6059 15.0392L16.6321 18.6178L17.8249 19.2469H14.1812L15.387 18.6047V15.0262ZM13.6307 15.3669L14.9019 15.38L14.915 18.3425L13.6303 19.0109V15.3672L13.6307 15.3669ZM12.6089 14.6458L13.2121 15.0527L13.215 19.1705L12.6121 19.1622C12.6121 19.1622 12.5805 14.6265 12.6089 14.6458ZM7.64304 11.2331H9.89685L9.29213 12.3822L10.3809 12.392V13.5411H11.1263L11.1165 14.2163H10.8441L10.8394 13.8185L10.8459 13.8149L9.62413 13.8203L9.61904 13.6734H9.77613L9.78231 13.1236L8.0314 13.1189V13.6727H8.19831L8.19649 13.8145L7.18958 13.8203L7.16776 18.7054C7.16776 18.7054 6.07067 16.1829 6.56158 13.5622L7.62631 12.7596C7.62631 12.7596 7.60449 11.2331 7.64304 11.2331ZM7.24667 11.2283L7.25467 12.5229L6.66667 12.9869C6.66667 12.9869 6.96522 11.6971 7.24667 11.2283ZM11.5849 13.9105L11.9598 14.232L11.5969 14.2262L11.5849 13.9105ZM10.4438 17.5098H11.3776V15.9862H10.4438V17.5098ZM13.0358 11.3018L13.7059 11.5862L13.2805 14.6152L12.0223 13.7327L12.7299 13.3483L12.2318 12.4571L13.4292 12.4483C13.4292 12.4483 13.0183 11.2832 13.0358 11.3018ZM14.1107 11.7229L13.6823 14.6327H14.1281L14.4601 11.7229H14.1107ZM14.8361 11.7229L14.5299 14.6243H14.967L15.0634 11.7142L14.8361 11.7229ZM15.535 11.7229L15.3779 14.6418L15.8059 14.6327V11.7142C15.8059 11.7142 15.5354 11.7142 15.535 11.7229ZM16.1994 11.7229H16.4703L16.6274 14.6327L16.2081 14.6243L16.1994 11.7229ZM17.1521 11.7229L17.4576 14.6243H17.0205L16.9245 11.7142L17.1521 11.7229ZM17.8772 11.7229L18.3052 14.6327H17.8598L17.5278 11.7229H17.8772ZM20.3819 13.9105L20.0067 14.232L20.3699 14.2262L20.3819 13.9105ZM24.3765 11.2971H22.1227L22.7274 12.4462L21.6387 12.456V13.6051H20.8932L20.903 14.2803H21.175L21.1798 13.8825L21.1736 13.8789L22.3954 13.884L22.4005 13.7374H22.2434L22.2372 13.1872L23.9881 13.1832V13.7367H23.8216L23.823 13.8785L24.8303 13.884L24.8521 18.7694C24.8521 18.7694 25.9492 16.2469 25.4579 13.6258L24.3932 12.8236C24.3932 12.8236 24.415 11.2971 24.3765 11.2971ZM24.7907 11.2912L24.7827 12.5858L25.3656 13.0498C25.3656 13.0498 25.0481 11.7603 24.7907 11.2912ZM18.9405 11.324L18.2703 11.6076L18.6958 14.6374L19.9539 13.7545L19.2459 13.3702L19.7441 12.4789L18.547 12.4702C18.547 12.4702 18.9579 11.3051 18.9405 11.324ZM8.1274 9.64906C8.1274 9.64906 10.1958 9.40143 13.3565 7.60979C13.3565 7.60979 13.5456 7.60979 13.6329 7.68252L14.3758 8.32361L15.9925 6.66324L17.551 8.36724L18.4394 7.65343C18.4394 7.65343 18.5267 7.59524 18.6721 7.65343C18.6721 7.65343 22.0696 9.54688 23.8285 9.5687C23.8285 9.5687 22.3718 7.10033 19.0656 5.99306C19.0656 5.99306 14.6899 4.22797 10.3641 7.33015C10.3554 7.32397 8.96231 8.36033 8.16849 9.57306L8.12122 9.64543L8.1274 9.64906ZM8.55795 26.168L8.54449 27.7149L5.94922 27.7542C5.94922 27.7542 9.0034 30.1792 11.7165 30.6643L11.8478 30.2185C11.8478 30.2185 16.3699 31.2149 20.0536 30.1662L20.2369 30.6905C20.2369 30.6905 23.6583 29.8123 25.9914 27.7411L23.3958 27.728L23.3569 26.2207C23.3569 26.2207 21.6394 27.348 20.591 27.584L20.4074 27.1774C20.4074 27.1774 16.3201 28.8309 11.5652 27.1836L11.3405 27.6891C11.3405 27.6891 8.73285 26.4443 8.55795 26.168ZM20.6936 28.0407C20.6827 28.0407 22.5289 27.3196 22.9765 26.9262V28.1276L24.8118 28.1167C24.8118 28.1167 22.7361 29.5916 20.5514 30.2142L20.5187 30.1051C20.5187 30.1051 21.2179 29.8429 21.3052 29.7662L20.7481 28.2043C20.7481 28.2043 20.7045 28.0407 20.6936 28.0407ZM11.7547 27.6363L11.1718 29.544C11.1718 29.544 15.5179 31.3065 20.7089 29.5502L20.7809 29.5105L20.191 27.7083C20.191 27.7083 15.5267 29.2236 11.8565 27.6363L11.7787 27.5996C11.7787 27.5996 11.7598 27.6338 11.7547 27.636V27.6363ZM8.90667 26.94L8.92558 28.1382H7.18449C7.18449 28.1382 8.62595 29.3927 11.4154 30.1789L11.4339 30.0851C11.4339 30.0851 10.7401 29.8207 10.6805 29.7611C10.6805 29.7611 11.2798 28.0905 11.2449 28.0294C11.2449 28.0294 9.9514 27.5487 8.96376 26.9458L8.9114 26.9065C8.9114 26.9065 8.90631 26.9345 8.90667 26.94Z" fill="var(--fill-0, #FF0000)"/>
</g>
</svg>
