<svg preserveAspectRatio="none" width="100%" height="100%" overflow="visible" style="display: block;" viewBox="0 0 32.0001 31.2543" fill="none" xmlns="http://www.w3.org/2000/svg">
<g id="Group">
<path id="Vector" d="M15.62 30.7473C15.5428 30.4602 15.141 28.9449 14.7392 27.3818C14.0439 24.5904 14.0285 24.4947 14.1057 22.6763C14.183 20.7463 14.5075 15.6102 14.9092 9.88398C15.0328 8.08157 15.2183 5.29022 15.311 3.67921C15.4037 2.05225 15.5428 0.56885 15.62 0.361492C15.8209 -0.180827 16.1917 -0.101074 16.2845 0.520998C16.4699 1.70134 16.7789 6.1675 17.3043 15.0679C17.397 16.4716 17.5206 18.5132 17.6133 19.6138C17.9842 24.6383 18.0306 23.8088 17.0725 27.5891C16.5935 29.4713 16.1608 31.0663 16.1299 31.1301C15.9754 31.3854 15.7745 31.2418 15.62 30.7473Z" fill="var(--fill-0, #1A1A1A)"/>
<path id="Vector_2" d="M0 27.6368C0 27.557 0.185425 27.2699 0.432659 26.9987C0.757154 26.6159 1.4834 26.2172 3.55399 25.3558C5.03739 24.7338 6.64441 24.0479 7.12343 23.8405C7.60244 23.6172 8.06601 23.4418 8.14327 23.4418C8.22053 23.4418 8.4214 23.3461 8.57593 23.2185C8.85406 23.0111 8.79226 22.9154 7.63335 21.5117C6.96891 20.6823 6.38172 19.9805 6.33537 19.9326C6.28901 19.8848 6.02633 19.5817 5.74819 19.2468L5.25372 18.6406V16.8223C5.25372 15.8333 5.31553 14.972 5.39279 14.9242C5.51641 14.8444 8.14327 17.7793 9.33308 19.3425C9.58031 19.6615 9.843 19.9326 9.90481 19.9326C9.96662 19.9326 10.8474 19.0235 11.8363 17.9069C12.8407 16.7744 13.7524 15.8333 13.876 15.8014C14.0769 15.7536 14.0923 15.9928 14.0151 17.4763C13.8915 19.4063 14.0614 19.1192 12.1763 20.6983C11.6818 21.113 11.28 21.4798 11.28 21.5277C11.28 21.5756 11.7282 22.1498 12.2844 22.8037C12.8407 23.4418 13.2734 24.0957 13.2579 24.2233C13.227 24.3988 12.2844 24.7019 9.8121 25.3399C7.94239 25.8025 5.96452 26.3288 5.40824 26.4724C4.85197 26.6319 3.73941 26.9509 2.9359 27.1742C1.20527 27.6527 0 27.8441 0 27.6368Z" fill="var(--fill-0, #1A1A1A)"/>
<path id="Vector_3" d="M29.0487 27.1736C27.9053 26.8705 25.2939 26.1847 23.2542 25.6583C18.8503 24.5258 18.5413 24.4301 18.5413 24.1908C18.5567 24.0792 19.0049 23.505 19.5457 22.8829C20.102 22.2768 20.5501 21.7025 20.5501 21.6068C20.5501 21.5271 20.3492 21.2878 20.1174 21.0964C19.8856 20.905 19.5302 20.602 19.3139 20.4105C19.0976 20.2191 18.7267 19.8842 18.4795 19.6609C18.1241 19.3578 17.985 19.0707 17.9078 18.4486C17.7378 17.2683 17.7378 15.7849 17.9078 15.7849C18.0468 15.7849 19.113 16.9014 20.7973 18.8155C21.2918 19.3897 21.7708 19.8682 21.8635 19.9001C21.9562 19.9161 22.9915 18.8155 24.1659 17.4278C25.3402 16.0401 26.3601 14.8916 26.4373 14.8597C26.5146 14.8278 26.5764 15.6892 26.5764 16.7738C26.5764 18.5922 26.5455 18.7676 26.221 19.1345C26.0356 19.3578 25.2475 20.3148 24.5058 21.2559C23.5323 22.4841 23.1924 23.0424 23.3005 23.154C23.3933 23.2497 23.9495 23.5209 24.5213 23.7602C30.4703 26.2006 31.4593 26.6791 31.7529 27.2533L32.0001 27.7478L31.5674 27.7319C31.3202 27.7319 30.1922 27.4766 29.0487 27.1736Z" fill="var(--fill-0, #1A1A1A)"/>
</g>
</svg>
