<svg preserveAspectRatio="none" width="100%" height="100%" overflow="visible" style="display: block;" viewBox="0 0 14 14" fill="none" xmlns="http://www.w3.org/2000/svg">
<g id="Footer Link Icon" opacity="0.5">
<path id="Vector" d="M5.25 9.91667H4.08333C3.30979 9.91667 2.56792 9.60938 2.02094 9.0624C1.47396 8.51541 1.16667 7.77355 1.16667 7C1.16667 6.22645 1.47396 5.48459 2.02094 4.93761C2.56792 4.39062 3.30979 4.08333 4.08333 4.08333H5.25M8.75 4.08333H9.91667C10.6902 4.08333 11.4321 4.39062 11.9791 4.93761C12.526 5.48459 12.8333 6.22645 12.8333 7C12.8333 7.77355 12.526 8.51541 11.9791 9.0624C11.4321 9.60938 10.6902 9.91667 9.91667 9.91667H8.75M4.66667 7H9.33333" stroke="var(--stroke-0, #1A1A1A)" stroke-width="1.16667" stroke-linecap="round" stroke-linejoin="round"/>
</g>
</svg>
